%TF.GenerationSoftware,KiCad,Pcbnew,(6.0.8)*%
%TF.CreationDate,2023-01-17T07:54:51-05:00*%
%TF.ProjectId,K1+K2 Carabiner for Mosquito,4b312b4b-3220-4436-9172-6162696e6572,rev?*%
%TF.SameCoordinates,Original*%
%TF.FileFunction,Legend,Top*%
%TF.FilePolarity,Positive*%
%FSLAX46Y46*%
G04 Gerber Fmt 4.6, Leading zero omitted, Abs format (unit mm)*
G04 Created by KiCad (PCBNEW (6.0.8)) date 2023-01-17 07:54:51*
%MOMM*%
%LPD*%
G01*
G04 APERTURE LIST*
%ADD10C,0.300000*%
%ADD11C,0.250000*%
%ADD12C,0.150000*%
%ADD13C,0.120000*%
%ADD14C,0.010000*%
G04 APERTURE END LIST*
D10*
X37203690Y-39320954D02*
X36143030Y-38260294D01*
X36648106Y-38765370D02*
X36042015Y-39371461D01*
X36597599Y-39927045D02*
X35536938Y-38866385D01*
X35536938Y-39876538D02*
X35183385Y-40230091D01*
X35587446Y-40937198D02*
X36092522Y-40432122D01*
X35031862Y-39371461D01*
X34526786Y-39876538D01*
X45110000Y-45348000D02*
X45110000Y-46062285D01*
X44681428Y-45205142D02*
X46181428Y-45705142D01*
X44681428Y-46205142D01*
X44681428Y-46705142D02*
X46181428Y-46705142D01*
X44681428Y-47562285D01*
X46181428Y-47562285D01*
X44681428Y-48276571D02*
X46181428Y-48276571D01*
X44681428Y-49133714D01*
X46181428Y-49133714D01*
X45467142Y-49848000D02*
X45467142Y-50348000D01*
X44681428Y-50562285D02*
X44681428Y-49848000D01*
X46181428Y-49848000D01*
X46181428Y-50562285D01*
X46181428Y-51062285D02*
X44681428Y-52062285D01*
X46181428Y-52062285D02*
X44681428Y-51062285D01*
X45467142Y-53776571D02*
X45467142Y-54276571D01*
X44681428Y-54490857D02*
X44681428Y-53776571D01*
X46181428Y-53776571D01*
X46181428Y-54490857D01*
X44681428Y-55133714D02*
X46181428Y-55133714D01*
X44681428Y-55990857D01*
X46181428Y-55990857D01*
X46110000Y-57490857D02*
X46181428Y-57348000D01*
X46181428Y-57133714D01*
X46110000Y-56919428D01*
X45967142Y-56776571D01*
X45824285Y-56705142D01*
X45538571Y-56633714D01*
X45324285Y-56633714D01*
X45038571Y-56705142D01*
X44895714Y-56776571D01*
X44752857Y-56919428D01*
X44681428Y-57133714D01*
X44681428Y-57276571D01*
X44752857Y-57490857D01*
X44824285Y-57562285D01*
X45324285Y-57562285D01*
X45324285Y-57276571D01*
X44681428Y-58205142D02*
X46181428Y-58205142D01*
X44681428Y-58919428D02*
X46181428Y-58919428D01*
X44681428Y-59776571D01*
X46181428Y-59776571D01*
X45467142Y-60490857D02*
X45467142Y-60990857D01*
X44681428Y-61205142D02*
X44681428Y-60490857D01*
X46181428Y-60490857D01*
X46181428Y-61205142D01*
X45467142Y-61848000D02*
X45467142Y-62348000D01*
X44681428Y-62562285D02*
X44681428Y-61848000D01*
X46181428Y-61848000D01*
X46181428Y-62562285D01*
X44681428Y-64062285D02*
X45395714Y-63562285D01*
X44681428Y-63205142D02*
X46181428Y-63205142D01*
X46181428Y-63776571D01*
X46110000Y-63919428D01*
X46038571Y-63990857D01*
X45895714Y-64062285D01*
X45681428Y-64062285D01*
X45538571Y-63990857D01*
X45467142Y-63919428D01*
X45395714Y-63776571D01*
X45395714Y-63205142D01*
X44681428Y-64705142D02*
X46181428Y-64705142D01*
X44681428Y-65419428D02*
X46181428Y-65419428D01*
X44681428Y-66276571D01*
X46181428Y-66276571D01*
X46110000Y-67776571D02*
X46181428Y-67633714D01*
X46181428Y-67419428D01*
X46110000Y-67205142D01*
X45967142Y-67062285D01*
X45824285Y-66990857D01*
X45538571Y-66919428D01*
X45324285Y-66919428D01*
X45038571Y-66990857D01*
X44895714Y-67062285D01*
X44752857Y-67205142D01*
X44681428Y-67419428D01*
X44681428Y-67562285D01*
X44752857Y-67776571D01*
X44824285Y-67848000D01*
X45324285Y-67848000D01*
X45324285Y-67562285D01*
D11*
X41330619Y-45752142D02*
X41806809Y-45418809D01*
X41330619Y-45180714D02*
X42330619Y-45180714D01*
X42330619Y-45561666D01*
X42283000Y-45656904D01*
X42235380Y-45704523D01*
X42140142Y-45752142D01*
X41997285Y-45752142D01*
X41902047Y-45704523D01*
X41854428Y-45656904D01*
X41806809Y-45561666D01*
X41806809Y-45180714D01*
X41378238Y-46561666D02*
X41330619Y-46466428D01*
X41330619Y-46275952D01*
X41378238Y-46180714D01*
X41473476Y-46133095D01*
X41854428Y-46133095D01*
X41949666Y-46180714D01*
X41997285Y-46275952D01*
X41997285Y-46466428D01*
X41949666Y-46561666D01*
X41854428Y-46609285D01*
X41759190Y-46609285D01*
X41663952Y-46133095D01*
X41997285Y-46942619D02*
X41330619Y-47180714D01*
X41997285Y-47418809D01*
X41330619Y-47799761D02*
X41997285Y-47799761D01*
X42330619Y-47799761D02*
X42283000Y-47752142D01*
X42235380Y-47799761D01*
X42283000Y-47847380D01*
X42330619Y-47799761D01*
X42235380Y-47799761D01*
X41378238Y-48228333D02*
X41330619Y-48323571D01*
X41330619Y-48514047D01*
X41378238Y-48609285D01*
X41473476Y-48656904D01*
X41521095Y-48656904D01*
X41616333Y-48609285D01*
X41663952Y-48514047D01*
X41663952Y-48371190D01*
X41711571Y-48275952D01*
X41806809Y-48228333D01*
X41854428Y-48228333D01*
X41949666Y-48275952D01*
X41997285Y-48371190D01*
X41997285Y-48514047D01*
X41949666Y-48609285D01*
X41330619Y-49085476D02*
X41997285Y-49085476D01*
X42330619Y-49085476D02*
X42283000Y-49037857D01*
X42235380Y-49085476D01*
X42283000Y-49133095D01*
X42330619Y-49085476D01*
X42235380Y-49085476D01*
X41330619Y-49704523D02*
X41378238Y-49609285D01*
X41425857Y-49561666D01*
X41521095Y-49514047D01*
X41806809Y-49514047D01*
X41902047Y-49561666D01*
X41949666Y-49609285D01*
X41997285Y-49704523D01*
X41997285Y-49847380D01*
X41949666Y-49942619D01*
X41902047Y-49990238D01*
X41806809Y-50037857D01*
X41521095Y-50037857D01*
X41425857Y-49990238D01*
X41378238Y-49942619D01*
X41330619Y-49847380D01*
X41330619Y-49704523D01*
X41997285Y-50466428D02*
X41330619Y-50466428D01*
X41902047Y-50466428D02*
X41949666Y-50514047D01*
X41997285Y-50609285D01*
X41997285Y-50752142D01*
X41949666Y-50847380D01*
X41854428Y-50895000D01*
X41330619Y-50895000D01*
X42235380Y-52085476D02*
X42283000Y-52133095D01*
X42330619Y-52228333D01*
X42330619Y-52466428D01*
X42283000Y-52561666D01*
X42235380Y-52609285D01*
X42140142Y-52656904D01*
X42044904Y-52656904D01*
X41902047Y-52609285D01*
X41330619Y-52037857D01*
X41330619Y-52656904D01*
X43203857Y-45697857D02*
X43156238Y-45650238D01*
X43108619Y-45507380D01*
X43108619Y-45412142D01*
X43156238Y-45269285D01*
X43251476Y-45174047D01*
X43346714Y-45126428D01*
X43537190Y-45078809D01*
X43680047Y-45078809D01*
X43870523Y-45126428D01*
X43965761Y-45174047D01*
X44061000Y-45269285D01*
X44108619Y-45412142D01*
X44108619Y-45507380D01*
X44061000Y-45650238D01*
X44013380Y-45697857D01*
X43108619Y-46555000D02*
X43632428Y-46555000D01*
X43727666Y-46507380D01*
X43775285Y-46412142D01*
X43775285Y-46221666D01*
X43727666Y-46126428D01*
X43156238Y-46555000D02*
X43108619Y-46459761D01*
X43108619Y-46221666D01*
X43156238Y-46126428D01*
X43251476Y-46078809D01*
X43346714Y-46078809D01*
X43441952Y-46126428D01*
X43489571Y-46221666D01*
X43489571Y-46459761D01*
X43537190Y-46555000D01*
X43108619Y-47031190D02*
X43775285Y-47031190D01*
X43584809Y-47031190D02*
X43680047Y-47078809D01*
X43727666Y-47126428D01*
X43775285Y-47221666D01*
X43775285Y-47316904D01*
X43108619Y-48078809D02*
X43632428Y-48078809D01*
X43727666Y-48031190D01*
X43775285Y-47935952D01*
X43775285Y-47745476D01*
X43727666Y-47650238D01*
X43156238Y-48078809D02*
X43108619Y-47983571D01*
X43108619Y-47745476D01*
X43156238Y-47650238D01*
X43251476Y-47602619D01*
X43346714Y-47602619D01*
X43441952Y-47650238D01*
X43489571Y-47745476D01*
X43489571Y-47983571D01*
X43537190Y-48078809D01*
X43108619Y-48554999D02*
X44108619Y-48554999D01*
X43727666Y-48554999D02*
X43775285Y-48650238D01*
X43775285Y-48840714D01*
X43727666Y-48935952D01*
X43680047Y-48983571D01*
X43584809Y-49031190D01*
X43299095Y-49031190D01*
X43203857Y-48983571D01*
X43156238Y-48935952D01*
X43108619Y-48840714D01*
X43108619Y-48650238D01*
X43156238Y-48554999D01*
X43108619Y-49459761D02*
X43775285Y-49459761D01*
X44108619Y-49459761D02*
X44061000Y-49412142D01*
X44013380Y-49459761D01*
X44061000Y-49507380D01*
X44108619Y-49459761D01*
X44013380Y-49459761D01*
X43775285Y-49935952D02*
X43108619Y-49935952D01*
X43680047Y-49935952D02*
X43727666Y-49983571D01*
X43775285Y-50078809D01*
X43775285Y-50221666D01*
X43727666Y-50316904D01*
X43632428Y-50364523D01*
X43108619Y-50364523D01*
X43156238Y-51221666D02*
X43108619Y-51126428D01*
X43108619Y-50935952D01*
X43156238Y-50840714D01*
X43251476Y-50793095D01*
X43632428Y-50793095D01*
X43727666Y-50840714D01*
X43775285Y-50935952D01*
X43775285Y-51126428D01*
X43727666Y-51221666D01*
X43632428Y-51269285D01*
X43537190Y-51269285D01*
X43441952Y-50793095D01*
X43108619Y-51697857D02*
X43775285Y-51697857D01*
X43584809Y-51697857D02*
X43680047Y-51745476D01*
X43727666Y-51793095D01*
X43775285Y-51888333D01*
X43775285Y-51983571D01*
X43108619Y-53078809D02*
X44108619Y-53078809D01*
X43108619Y-53650238D02*
X43680047Y-53221666D01*
X44108619Y-53650238D02*
X43537190Y-53078809D01*
X43108619Y-54602619D02*
X43108619Y-54031190D01*
X43108619Y-54316904D02*
X44108619Y-54316904D01*
X43965761Y-54221666D01*
X43870523Y-54126428D01*
X43822904Y-54031190D01*
X43203857Y-55031190D02*
X43156238Y-55078809D01*
X43108619Y-55031190D01*
X43156238Y-54983571D01*
X43203857Y-55031190D01*
X43108619Y-55031190D01*
X44108619Y-55983571D02*
X44108619Y-55507380D01*
X43632428Y-55459761D01*
X43680047Y-55507380D01*
X43727666Y-55602619D01*
X43727666Y-55840714D01*
X43680047Y-55935952D01*
X43632428Y-55983571D01*
X43537190Y-56031190D01*
X43299095Y-56031190D01*
X43203857Y-55983571D01*
X43156238Y-55935952D01*
X43108619Y-55840714D01*
X43108619Y-55602619D01*
X43156238Y-55507380D01*
X43203857Y-55459761D01*
X43775285Y-57078809D02*
X43775285Y-57459761D01*
X43108619Y-57221666D02*
X43965761Y-57221666D01*
X44061000Y-57269285D01*
X44108619Y-57364523D01*
X44108619Y-57459761D01*
X43108619Y-57935952D02*
X43156238Y-57840714D01*
X43203857Y-57793095D01*
X43299095Y-57745476D01*
X43584809Y-57745476D01*
X43680047Y-57793095D01*
X43727666Y-57840714D01*
X43775285Y-57935952D01*
X43775285Y-58078809D01*
X43727666Y-58174047D01*
X43680047Y-58221666D01*
X43584809Y-58269285D01*
X43299095Y-58269285D01*
X43203857Y-58221666D01*
X43156238Y-58174047D01*
X43108619Y-58078809D01*
X43108619Y-57935952D01*
X43108619Y-58697857D02*
X43775285Y-58697857D01*
X43584809Y-58697857D02*
X43680047Y-58745476D01*
X43727666Y-58793095D01*
X43775285Y-58888333D01*
X43775285Y-58983571D01*
X43108619Y-60078809D02*
X44108619Y-60078809D01*
X43394333Y-60412142D01*
X44108619Y-60745476D01*
X43108619Y-60745476D01*
X43108619Y-61364523D02*
X43156238Y-61269285D01*
X43203857Y-61221666D01*
X43299095Y-61174047D01*
X43584809Y-61174047D01*
X43680047Y-61221666D01*
X43727666Y-61269285D01*
X43775285Y-61364523D01*
X43775285Y-61507380D01*
X43727666Y-61602619D01*
X43680047Y-61650238D01*
X43584809Y-61697857D01*
X43299095Y-61697857D01*
X43203857Y-61650238D01*
X43156238Y-61602619D01*
X43108619Y-61507380D01*
X43108619Y-61364523D01*
X43156238Y-62078809D02*
X43108619Y-62174047D01*
X43108619Y-62364523D01*
X43156238Y-62459761D01*
X43251476Y-62507380D01*
X43299095Y-62507380D01*
X43394333Y-62459761D01*
X43441952Y-62364523D01*
X43441952Y-62221666D01*
X43489571Y-62126428D01*
X43584809Y-62078809D01*
X43632428Y-62078809D01*
X43727666Y-62126428D01*
X43775285Y-62221666D01*
X43775285Y-62364523D01*
X43727666Y-62459761D01*
X43775285Y-63364523D02*
X42775285Y-63364523D01*
X43156238Y-63364523D02*
X43108619Y-63269285D01*
X43108619Y-63078809D01*
X43156238Y-62983571D01*
X43203857Y-62935952D01*
X43299095Y-62888333D01*
X43584809Y-62888333D01*
X43680047Y-62935952D01*
X43727666Y-62983571D01*
X43775285Y-63078809D01*
X43775285Y-63269285D01*
X43727666Y-63364523D01*
X43775285Y-64269285D02*
X43108619Y-64269285D01*
X43775285Y-63840714D02*
X43251476Y-63840714D01*
X43156238Y-63888333D01*
X43108619Y-63983571D01*
X43108619Y-64126428D01*
X43156238Y-64221666D01*
X43203857Y-64269285D01*
X43108619Y-64745476D02*
X43775285Y-64745476D01*
X44108619Y-64745476D02*
X44061000Y-64697857D01*
X44013380Y-64745476D01*
X44061000Y-64793095D01*
X44108619Y-64745476D01*
X44013380Y-64745476D01*
X43775285Y-65078809D02*
X43775285Y-65459761D01*
X44108619Y-65221666D02*
X43251476Y-65221666D01*
X43156238Y-65269285D01*
X43108619Y-65364523D01*
X43108619Y-65459761D01*
X43108619Y-65935952D02*
X43156238Y-65840714D01*
X43203857Y-65793095D01*
X43299095Y-65745476D01*
X43584809Y-65745476D01*
X43680047Y-65793095D01*
X43727666Y-65840714D01*
X43775285Y-65935952D01*
X43775285Y-66078809D01*
X43727666Y-66174047D01*
X43680047Y-66221666D01*
X43584809Y-66269285D01*
X43299095Y-66269285D01*
X43203857Y-66221666D01*
X43156238Y-66174047D01*
X43108619Y-66078809D01*
X43108619Y-65935952D01*
X43108619Y-67459761D02*
X44108619Y-67459761D01*
X43632428Y-67459761D02*
X43632428Y-68031190D01*
X43108619Y-68031190D02*
X44108619Y-68031190D01*
X43108619Y-68650238D02*
X43156238Y-68554999D01*
X43203857Y-68507380D01*
X43299095Y-68459761D01*
X43584809Y-68459761D01*
X43680047Y-68507380D01*
X43727666Y-68554999D01*
X43775285Y-68650238D01*
X43775285Y-68793095D01*
X43727666Y-68888333D01*
X43680047Y-68935952D01*
X43584809Y-68983571D01*
X43299095Y-68983571D01*
X43203857Y-68935952D01*
X43156238Y-68888333D01*
X43108619Y-68793095D01*
X43108619Y-68650238D01*
X43775285Y-69269285D02*
X43775285Y-69650238D01*
X44108619Y-69412142D02*
X43251476Y-69412142D01*
X43156238Y-69459761D01*
X43108619Y-69554999D01*
X43108619Y-69650238D01*
X43156238Y-70364523D02*
X43108619Y-70269285D01*
X43108619Y-70078809D01*
X43156238Y-69983571D01*
X43251476Y-69935952D01*
X43632428Y-69935952D01*
X43727666Y-69983571D01*
X43775285Y-70078809D01*
X43775285Y-70269285D01*
X43727666Y-70364523D01*
X43632428Y-70412142D01*
X43537190Y-70412142D01*
X43441952Y-69935952D01*
X43775285Y-70840714D02*
X43108619Y-70840714D01*
X43680047Y-70840714D02*
X43727666Y-70888333D01*
X43775285Y-70983571D01*
X43775285Y-71126428D01*
X43727666Y-71221666D01*
X43632428Y-71269285D01*
X43108619Y-71269285D01*
X43108619Y-72174047D02*
X44108619Y-72174047D01*
X43156238Y-72174047D02*
X43108619Y-72078809D01*
X43108619Y-71888333D01*
X43156238Y-71793095D01*
X43203857Y-71745476D01*
X43299095Y-71697857D01*
X43584809Y-71697857D01*
X43680047Y-71745476D01*
X43727666Y-71793095D01*
X43775285Y-71888333D01*
X43775285Y-72078809D01*
X43727666Y-72174047D01*
X43156238Y-72602619D02*
X43108619Y-72697857D01*
X43108619Y-72888333D01*
X43156238Y-72983571D01*
X43251476Y-73031190D01*
X43299095Y-73031190D01*
X43394333Y-72983571D01*
X43441952Y-72888333D01*
X43441952Y-72745476D01*
X43489571Y-72650238D01*
X43584809Y-72602619D01*
X43632428Y-72602619D01*
X43727666Y-72650238D01*
X43775285Y-72745476D01*
X43775285Y-72888333D01*
X43727666Y-72983571D01*
D10*
X58988571Y-93717142D02*
X59202857Y-93788571D01*
X59560000Y-93788571D01*
X59702857Y-93717142D01*
X59774285Y-93645714D01*
X59845714Y-93502857D01*
X59845714Y-93360000D01*
X59774285Y-93217142D01*
X59702857Y-93145714D01*
X59560000Y-93074285D01*
X59274285Y-93002857D01*
X59131428Y-92931428D01*
X59060000Y-92860000D01*
X58988571Y-92717142D01*
X58988571Y-92574285D01*
X59060000Y-92431428D01*
X59131428Y-92360000D01*
X59274285Y-92288571D01*
X59631428Y-92288571D01*
X59845714Y-92360000D01*
X60488571Y-93788571D02*
X60488571Y-92788571D01*
X60488571Y-92288571D02*
X60417142Y-92360000D01*
X60488571Y-92431428D01*
X60560000Y-92360000D01*
X60488571Y-92288571D01*
X60488571Y-92431428D01*
X61845714Y-93788571D02*
X61845714Y-92288571D01*
X61845714Y-93717142D02*
X61702857Y-93788571D01*
X61417142Y-93788571D01*
X61274285Y-93717142D01*
X61202857Y-93645714D01*
X61131428Y-93502857D01*
X61131428Y-93074285D01*
X61202857Y-92931428D01*
X61274285Y-92860000D01*
X61417142Y-92788571D01*
X61702857Y-92788571D01*
X61845714Y-92860000D01*
X63131428Y-93717142D02*
X62988571Y-93788571D01*
X62702857Y-93788571D01*
X62560000Y-93717142D01*
X62488571Y-93574285D01*
X62488571Y-93002857D01*
X62560000Y-92860000D01*
X62702857Y-92788571D01*
X62988571Y-92788571D01*
X63131428Y-92860000D01*
X63202857Y-93002857D01*
X63202857Y-93145714D01*
X62488571Y-93288571D01*
X64917142Y-93360000D02*
X65631428Y-93360000D01*
X64774285Y-93788571D02*
X65274285Y-92288571D01*
X65774285Y-93788571D01*
X39285467Y-41251208D02*
X38679375Y-41857299D01*
X37921761Y-40493593D02*
X38982421Y-41554253D01*
X37265162Y-41150192D02*
X38325822Y-42210852D01*
X37820746Y-41705776D02*
X37214654Y-42311868D01*
X36659070Y-41756284D02*
X37719730Y-42816944D01*
D12*
%TO.C,P_CF2*%
X41416996Y-111622766D02*
X40709889Y-110915660D01*
X40979263Y-110646286D01*
X41080278Y-110612614D01*
X41147622Y-110612614D01*
X41248637Y-110646286D01*
X41349652Y-110747301D01*
X41383324Y-110848316D01*
X41383324Y-110915660D01*
X41349652Y-111016675D01*
X41080278Y-111286049D01*
X42023087Y-111151362D02*
X42561835Y-110612614D01*
X42999568Y-109905507D02*
X42999568Y-109972851D01*
X42932225Y-110107538D01*
X42864881Y-110174881D01*
X42730194Y-110242225D01*
X42595507Y-110242225D01*
X42494492Y-110208553D01*
X42326133Y-110107538D01*
X42225118Y-110006522D01*
X42124103Y-109838164D01*
X42090431Y-109737148D01*
X42090431Y-109602461D01*
X42157774Y-109467774D01*
X42225118Y-109400431D01*
X42359805Y-109333087D01*
X42427148Y-109333087D01*
X43235270Y-109063713D02*
X42999568Y-109299416D01*
X43369957Y-109669805D02*
X42662851Y-108962698D01*
X42999568Y-108625981D01*
X43302614Y-108457622D02*
X43302614Y-108390278D01*
X43336286Y-108289263D01*
X43504644Y-108120904D01*
X43605660Y-108087233D01*
X43673003Y-108087233D01*
X43774018Y-108120904D01*
X43841362Y-108188248D01*
X43908705Y-108322935D01*
X43908705Y-109131057D01*
X44346438Y-108693324D01*
%TO.C,EStepper1*%
X78641201Y-107190217D02*
X78405499Y-106954514D01*
X78674873Y-106483110D02*
X79011591Y-106819827D01*
X78304484Y-107526934D01*
X77967766Y-107190217D01*
X78371827Y-106247408D02*
X78304484Y-106112721D01*
X78136125Y-105944362D01*
X78035110Y-105910690D01*
X77967766Y-105910690D01*
X77866751Y-105944362D01*
X77799408Y-106011705D01*
X77765736Y-106112721D01*
X77765736Y-106180064D01*
X77799408Y-106281079D01*
X77900423Y-106449438D01*
X77934095Y-106550453D01*
X77934095Y-106617797D01*
X77900423Y-106718812D01*
X77833079Y-106786156D01*
X77732064Y-106819827D01*
X77664721Y-106819827D01*
X77563705Y-106786156D01*
X77395347Y-106617797D01*
X77328003Y-106483110D01*
X77328003Y-106079049D02*
X77058629Y-105809675D01*
X76991286Y-106213736D02*
X77597377Y-105607644D01*
X77631049Y-105506629D01*
X77597377Y-105405614D01*
X77530034Y-105338270D01*
X76991286Y-104866866D02*
X77092301Y-104900538D01*
X77226988Y-105035225D01*
X77260660Y-105136240D01*
X77226988Y-105237255D01*
X76957614Y-105506629D01*
X76856599Y-105540301D01*
X76755583Y-105506629D01*
X76620896Y-105371942D01*
X76587225Y-105270927D01*
X76620896Y-105169912D01*
X76688240Y-105102568D01*
X77092301Y-105371942D01*
X76216835Y-104967881D02*
X76923942Y-104260774D01*
X76250507Y-104934209D02*
X76149492Y-104900538D01*
X76014805Y-104765851D01*
X75981133Y-104664835D01*
X75981133Y-104597492D01*
X76014805Y-104496477D01*
X76216835Y-104294446D01*
X76317851Y-104260774D01*
X76385194Y-104260774D01*
X76486209Y-104294446D01*
X76620896Y-104429133D01*
X76654568Y-104530148D01*
X75577072Y-104328118D02*
X76284179Y-103621011D01*
X75610744Y-104294446D02*
X75509729Y-104260774D01*
X75375042Y-104126087D01*
X75341370Y-104025072D01*
X75341370Y-103957729D01*
X75375042Y-103856713D01*
X75577072Y-103654683D01*
X75678087Y-103621011D01*
X75745431Y-103621011D01*
X75846446Y-103654683D01*
X75981133Y-103789370D01*
X76014805Y-103890385D01*
X75105668Y-102981248D02*
X75206683Y-103014920D01*
X75341370Y-103149607D01*
X75375042Y-103250622D01*
X75341370Y-103351637D01*
X75071996Y-103621011D01*
X74970981Y-103654683D01*
X74869965Y-103621011D01*
X74735278Y-103486324D01*
X74701607Y-103385309D01*
X74735278Y-103284294D01*
X74802622Y-103216950D01*
X75206683Y-103486324D01*
X74802622Y-102610859D02*
X74331217Y-103082263D01*
X74465904Y-102947576D02*
X74364889Y-102981248D01*
X74297546Y-102981248D01*
X74196530Y-102947576D01*
X74129187Y-102880233D01*
X73994500Y-101802736D02*
X74398561Y-102206798D01*
X74196530Y-102004767D02*
X73489424Y-102711874D01*
X73657782Y-102678202D01*
X73792469Y-102678202D01*
X73893485Y-102711874D01*
%TO.C,ChamberTh1*%
X88186095Y-51284142D02*
X88138476Y-51331761D01*
X87995619Y-51379380D01*
X87900380Y-51379380D01*
X87757523Y-51331761D01*
X87662285Y-51236523D01*
X87614666Y-51141285D01*
X87567047Y-50950809D01*
X87567047Y-50807952D01*
X87614666Y-50617476D01*
X87662285Y-50522238D01*
X87757523Y-50427000D01*
X87900380Y-50379380D01*
X87995619Y-50379380D01*
X88138476Y-50427000D01*
X88186095Y-50474619D01*
X88614666Y-51379380D02*
X88614666Y-50379380D01*
X89043238Y-51379380D02*
X89043238Y-50855571D01*
X88995619Y-50760333D01*
X88900380Y-50712714D01*
X88757523Y-50712714D01*
X88662285Y-50760333D01*
X88614666Y-50807952D01*
X89948000Y-51379380D02*
X89948000Y-50855571D01*
X89900380Y-50760333D01*
X89805142Y-50712714D01*
X89614666Y-50712714D01*
X89519428Y-50760333D01*
X89948000Y-51331761D02*
X89852761Y-51379380D01*
X89614666Y-51379380D01*
X89519428Y-51331761D01*
X89471809Y-51236523D01*
X89471809Y-51141285D01*
X89519428Y-51046047D01*
X89614666Y-50998428D01*
X89852761Y-50998428D01*
X89948000Y-50950809D01*
X90424190Y-51379380D02*
X90424190Y-50712714D01*
X90424190Y-50807952D02*
X90471809Y-50760333D01*
X90567047Y-50712714D01*
X90709904Y-50712714D01*
X90805142Y-50760333D01*
X90852761Y-50855571D01*
X90852761Y-51379380D01*
X90852761Y-50855571D02*
X90900380Y-50760333D01*
X90995619Y-50712714D01*
X91138476Y-50712714D01*
X91233714Y-50760333D01*
X91281333Y-50855571D01*
X91281333Y-51379380D01*
X91757523Y-51379380D02*
X91757523Y-50379380D01*
X91757523Y-50760333D02*
X91852761Y-50712714D01*
X92043238Y-50712714D01*
X92138476Y-50760333D01*
X92186095Y-50807952D01*
X92233714Y-50903190D01*
X92233714Y-51188904D01*
X92186095Y-51284142D01*
X92138476Y-51331761D01*
X92043238Y-51379380D01*
X91852761Y-51379380D01*
X91757523Y-51331761D01*
X93043238Y-51331761D02*
X92948000Y-51379380D01*
X92757523Y-51379380D01*
X92662285Y-51331761D01*
X92614666Y-51236523D01*
X92614666Y-50855571D01*
X92662285Y-50760333D01*
X92757523Y-50712714D01*
X92948000Y-50712714D01*
X93043238Y-50760333D01*
X93090857Y-50855571D01*
X93090857Y-50950809D01*
X92614666Y-51046047D01*
X93519428Y-51379380D02*
X93519428Y-50712714D01*
X93519428Y-50903190D02*
X93567047Y-50807952D01*
X93614666Y-50760333D01*
X93709904Y-50712714D01*
X93805142Y-50712714D01*
X93995619Y-50379380D02*
X94567047Y-50379380D01*
X94281333Y-51379380D02*
X94281333Y-50379380D01*
X94900380Y-51379380D02*
X94900380Y-50379380D01*
X95328952Y-51379380D02*
X95328952Y-50855571D01*
X95281333Y-50760333D01*
X95186095Y-50712714D01*
X95043238Y-50712714D01*
X94948000Y-50760333D01*
X94900380Y-50807952D01*
X96328952Y-51379380D02*
X95757523Y-51379380D01*
X96043238Y-51379380D02*
X96043238Y-50379380D01*
X95948000Y-50522238D01*
X95852761Y-50617476D01*
X95757523Y-50665095D01*
%TO.C,ZBeacon1*%
X45381065Y-106498485D02*
X45852469Y-106027080D01*
X46088172Y-107205592D01*
X46559576Y-106734187D01*
X46694263Y-105858722D02*
X46828950Y-105791378D01*
X46896294Y-105791378D01*
X46997309Y-105825050D01*
X47098324Y-105926065D01*
X47131996Y-106027080D01*
X47131996Y-106094424D01*
X47098324Y-106195439D01*
X46828950Y-106464813D01*
X46121843Y-105757706D01*
X46357546Y-105522004D01*
X46458561Y-105488332D01*
X46525904Y-105488332D01*
X46626920Y-105522004D01*
X46694263Y-105589348D01*
X46727935Y-105690363D01*
X46727935Y-105757706D01*
X46694263Y-105858722D01*
X46458561Y-106094424D01*
X47771759Y-105454661D02*
X47738087Y-105555676D01*
X47603400Y-105690363D01*
X47502385Y-105724035D01*
X47401370Y-105690363D01*
X47131996Y-105420989D01*
X47098324Y-105319974D01*
X47131996Y-105218958D01*
X47266683Y-105084271D01*
X47367698Y-105050600D01*
X47468713Y-105084271D01*
X47536057Y-105151615D01*
X47266683Y-105555676D01*
X48445194Y-104848569D02*
X48074805Y-104478180D01*
X47973790Y-104444508D01*
X47872774Y-104478180D01*
X47738087Y-104612867D01*
X47704416Y-104713882D01*
X48411522Y-104814897D02*
X48377851Y-104915913D01*
X48209492Y-105084271D01*
X48108477Y-105117943D01*
X48007461Y-105084271D01*
X47940118Y-105016928D01*
X47906446Y-104915913D01*
X47940118Y-104814897D01*
X48108477Y-104646539D01*
X48142148Y-104545523D01*
X49051286Y-104175134D02*
X49017614Y-104276149D01*
X48882927Y-104410836D01*
X48781912Y-104444508D01*
X48714568Y-104444508D01*
X48613553Y-104410836D01*
X48411522Y-104208806D01*
X48377851Y-104107791D01*
X48377851Y-104040447D01*
X48411522Y-103939432D01*
X48546209Y-103804745D01*
X48647225Y-103771073D01*
X49489018Y-103804745D02*
X49388003Y-103838417D01*
X49320660Y-103838417D01*
X49219644Y-103804745D01*
X49017614Y-103602714D01*
X48983942Y-103501699D01*
X48983942Y-103434356D01*
X49017614Y-103333340D01*
X49118629Y-103232325D01*
X49219644Y-103198653D01*
X49286988Y-103198653D01*
X49388003Y-103232325D01*
X49590034Y-103434356D01*
X49623705Y-103535371D01*
X49623705Y-103602714D01*
X49590034Y-103703730D01*
X49489018Y-103804745D01*
X49556362Y-102794592D02*
X50027766Y-103265997D01*
X49623705Y-102861936D02*
X49623705Y-102794592D01*
X49657377Y-102693577D01*
X49758392Y-102592562D01*
X49859408Y-102558890D01*
X49960423Y-102592562D01*
X50330812Y-102962951D01*
X51037919Y-102255844D02*
X50633858Y-102659905D01*
X50835888Y-102457875D02*
X50128782Y-101750768D01*
X50162453Y-101919127D01*
X50162453Y-102053814D01*
X50128782Y-102154829D01*
%TO.C,HE_CF1*%
X79244190Y-58181380D02*
X79244190Y-57181380D01*
X79244190Y-57657571D02*
X79815619Y-57657571D01*
X79815619Y-58181380D02*
X79815619Y-57181380D01*
X80291809Y-57657571D02*
X80625142Y-57657571D01*
X80768000Y-58181380D02*
X80291809Y-58181380D01*
X80291809Y-57181380D01*
X80768000Y-57181380D01*
X80958476Y-58276619D02*
X81720380Y-58276619D01*
X82529904Y-58086142D02*
X82482285Y-58133761D01*
X82339428Y-58181380D01*
X82244190Y-58181380D01*
X82101333Y-58133761D01*
X82006095Y-58038523D01*
X81958476Y-57943285D01*
X81910857Y-57752809D01*
X81910857Y-57609952D01*
X81958476Y-57419476D01*
X82006095Y-57324238D01*
X82101333Y-57229000D01*
X82244190Y-57181380D01*
X82339428Y-57181380D01*
X82482285Y-57229000D01*
X82529904Y-57276619D01*
X83291809Y-57657571D02*
X82958476Y-57657571D01*
X82958476Y-58181380D02*
X82958476Y-57181380D01*
X83434666Y-57181380D01*
X84339428Y-58181380D02*
X83768000Y-58181380D01*
X84053714Y-58181380D02*
X84053714Y-57181380D01*
X83958476Y-57324238D01*
X83863238Y-57419476D01*
X83768000Y-57467095D01*
%TO.C,P_CF1*%
X83682766Y-110983003D02*
X82975660Y-111690110D01*
X82706286Y-111420736D01*
X82672614Y-111319721D01*
X82672614Y-111252377D01*
X82706286Y-111151362D01*
X82807301Y-111050347D01*
X82908316Y-111016675D01*
X82975660Y-111016675D01*
X83076675Y-111050347D01*
X83346049Y-111319721D01*
X83211362Y-110376912D02*
X82672614Y-109838164D01*
X81965507Y-109400431D02*
X82032851Y-109400431D01*
X82167538Y-109467774D01*
X82234881Y-109535118D01*
X82302225Y-109669805D01*
X82302225Y-109804492D01*
X82268553Y-109905507D01*
X82167538Y-110073866D01*
X82066522Y-110174881D01*
X81898164Y-110275896D01*
X81797148Y-110309568D01*
X81662461Y-110309568D01*
X81527774Y-110242225D01*
X81460431Y-110174881D01*
X81393087Y-110040194D01*
X81393087Y-109972851D01*
X81123713Y-109164729D02*
X81359416Y-109400431D01*
X81729805Y-109030042D02*
X81022698Y-109737148D01*
X80685981Y-109400431D01*
X80753324Y-108053561D02*
X81157385Y-108457622D01*
X80955355Y-108255591D02*
X80248248Y-108962698D01*
X80416607Y-108929026D01*
X80551294Y-108929026D01*
X80652309Y-108962698D01*
D13*
%TO.C,P_CF2*%
X40997742Y-103572918D02*
X40467412Y-104103249D01*
X39831016Y-110834905D02*
X44052443Y-106613478D01*
X39548173Y-101699086D02*
X38664289Y-100815202D01*
X37603629Y-103360786D02*
X35517664Y-105446751D01*
X42447311Y-108204468D02*
X41916981Y-107674138D01*
X38664289Y-101225324D02*
X34442862Y-105446751D01*
X34442862Y-105446751D02*
X39831016Y-110834905D01*
X42765509Y-105340685D02*
X42235179Y-105871016D01*
X40467412Y-104103249D02*
X41174518Y-104810355D01*
X37073299Y-102830456D02*
X37603629Y-103360786D01*
X39937082Y-102512258D02*
X38664289Y-101239466D01*
X35517664Y-105446751D02*
X37674340Y-107603427D01*
X41916981Y-107674138D02*
X39831016Y-109760103D01*
X38133959Y-101769796D02*
X39406751Y-103042588D01*
X38664289Y-101239466D02*
X38133959Y-101769796D01*
X38664289Y-100815202D02*
X37780406Y-101699086D01*
X39831016Y-109760103D02*
X37674340Y-107603427D01*
X41174518Y-104810355D02*
X41704848Y-104280025D01*
X43507971Y-107143808D02*
X44038301Y-106613478D01*
X39406751Y-103042588D02*
X39937082Y-102512258D01*
X42235179Y-105871016D02*
X43507971Y-107143808D01*
X44052443Y-106613478D02*
X38664289Y-101225324D01*
X44038301Y-106613478D02*
X42765509Y-105340685D01*
X41704848Y-104280025D02*
X40997742Y-103572918D01*
%TO.C,EStepper1*%
X75734796Y-102455041D02*
X77007588Y-101182249D01*
X85705002Y-94606155D02*
X85174672Y-95136486D01*
X74780202Y-101924711D02*
X75664086Y-102808594D01*
X81780559Y-95348618D02*
X77537918Y-99591258D01*
X82841219Y-94287957D02*
X83371549Y-94818288D01*
X85174672Y-95136486D02*
X87260637Y-97222451D01*
X88335439Y-97222451D02*
X84114012Y-93001023D01*
X78068249Y-100121588D02*
X82310889Y-95878948D01*
X77537918Y-99591258D02*
X78068249Y-100121588D01*
X75204466Y-101924711D02*
X75734796Y-102455041D01*
X76795456Y-103515701D02*
X77325786Y-102985371D01*
X77007588Y-101182249D02*
X76477258Y-100651918D01*
X77325786Y-102985371D02*
X79411751Y-105071336D01*
X84114012Y-93001023D02*
X75190324Y-101924711D01*
X75190324Y-101924711D02*
X79411751Y-106146138D01*
X84114012Y-93015165D02*
X82841219Y-94287957D01*
X82310889Y-95878948D02*
X81780559Y-95348618D01*
X83371549Y-94818288D02*
X84644342Y-93545495D01*
X76477258Y-100651918D02*
X75204466Y-101924711D01*
X84644342Y-93545495D02*
X84114012Y-93015165D01*
X79411751Y-105071336D02*
X83336194Y-101146893D01*
X87260637Y-97222451D02*
X83336194Y-101146893D01*
X79411751Y-106146138D02*
X88335439Y-97222451D01*
X75664086Y-101040827D02*
X74780202Y-101924711D01*
%TO.C,Carabiner_Input1*%
X75415000Y-91530000D02*
X49045000Y-91530000D01*
X76415000Y-90530000D02*
X75415000Y-91530000D01*
X48045000Y-90530000D02*
X48045000Y-81400000D01*
X48045000Y-81400000D02*
X76415000Y-81400000D01*
X76415000Y-81400000D02*
X76415000Y-90530000D01*
X49045000Y-91530000D02*
X48045000Y-90530000D01*
%TO.C,ChamberTh1*%
X93694000Y-47541000D02*
X89694000Y-47541000D01*
X89694000Y-49776000D02*
X93694000Y-49776000D01*
%TO.C,ZBeacon1*%
X49230416Y-101665131D02*
X47957624Y-100392338D01*
X38729880Y-94346575D02*
X39260210Y-94876905D01*
X36099443Y-96962870D02*
X45023130Y-105886558D01*
X45023130Y-105886558D02*
X49244558Y-101665131D01*
X41204754Y-93215205D02*
X40320870Y-92331321D01*
X49244558Y-101665131D02*
X40320870Y-92741443D01*
X40320870Y-92331321D02*
X39436987Y-93215205D01*
X47639426Y-103256121D02*
X47109095Y-102725791D01*
X41593663Y-94028377D02*
X40320870Y-92755585D01*
X47957624Y-100392338D02*
X47427293Y-100922668D01*
X39260210Y-94876905D02*
X37174245Y-96962870D01*
X46896963Y-99331678D02*
X42654323Y-95089037D01*
X37174245Y-96962870D02*
X41098688Y-100887313D01*
X40320870Y-92755585D02*
X39790540Y-93285915D01*
X46366633Y-99862008D02*
X46896963Y-99331678D01*
X47109095Y-102725791D02*
X45023130Y-104811756D01*
X39790540Y-93285915D02*
X41063332Y-94558707D01*
X48700086Y-102195461D02*
X49230416Y-101665131D01*
X47427293Y-100922668D02*
X48700086Y-102195461D01*
X40320870Y-92741443D02*
X36099443Y-96962870D01*
X42123993Y-95619368D02*
X46366633Y-99862008D01*
X41063332Y-94558707D02*
X41593663Y-94028377D01*
X45023130Y-104811756D02*
X41098688Y-100887313D01*
X42654323Y-95089037D02*
X42123993Y-95619368D01*
%TO.C,HE_CF1*%
X82718000Y-56329000D02*
X83018000Y-55729000D01*
X85578000Y-56639000D02*
X84158000Y-56639000D01*
X83318000Y-56329000D02*
X82718000Y-56329000D01*
X81768000Y-44919000D02*
X85578000Y-44919000D01*
X84158000Y-56639000D02*
X84158000Y-52139000D01*
X80768000Y-51029000D02*
X80768000Y-45529000D01*
X81768000Y-44919000D02*
X77958000Y-44919000D01*
X80768000Y-45529000D02*
X80268000Y-45529000D01*
X80268000Y-51029000D02*
X80768000Y-51029000D01*
X77958000Y-44919000D02*
X77958000Y-56639000D01*
X82768000Y-51029000D02*
X83268000Y-51029000D01*
X83268000Y-51029000D02*
X83268000Y-45529000D01*
X82768000Y-45529000D02*
X82768000Y-51029000D01*
X79378000Y-52139000D02*
X81768000Y-52139000D01*
X77958000Y-56639000D02*
X79378000Y-56639000D01*
X80268000Y-45529000D02*
X80268000Y-51029000D01*
X83018000Y-55729000D02*
X83318000Y-56329000D01*
X79378000Y-56639000D02*
X79378000Y-52139000D01*
X85578000Y-44919000D02*
X85578000Y-56639000D01*
X83268000Y-45529000D02*
X82768000Y-45529000D01*
X84158000Y-52139000D02*
X81768000Y-52139000D01*
%TO.C,P_CF1*%
X79875088Y-106628364D02*
X80758972Y-107512247D01*
X81572144Y-105355571D02*
X80299352Y-106628364D01*
X85673364Y-101240210D02*
X80285210Y-106628364D01*
X84400571Y-102527144D02*
X84930902Y-103057474D01*
X80829682Y-107158694D02*
X82102474Y-105885902D01*
X89894791Y-105461637D02*
X85673364Y-101240210D01*
X86203694Y-101784682D02*
X85673364Y-101254352D01*
X83163135Y-104825241D02*
X83870241Y-104118135D01*
X88819989Y-105461637D02*
X86663313Y-107618313D01*
X83870241Y-104118135D02*
X83339911Y-103587805D01*
X83339911Y-103587805D02*
X82632804Y-104294911D01*
X84506637Y-110849791D02*
X89894791Y-105461637D01*
X85673364Y-101254352D02*
X84400571Y-102527144D01*
X82102474Y-105885902D02*
X81572144Y-105355571D01*
X82632804Y-104294911D02*
X83163135Y-104825241D01*
X82420672Y-107689024D02*
X84506637Y-109774989D01*
X81890342Y-108219354D02*
X82420672Y-107689024D01*
X87264354Y-102845342D02*
X86734024Y-103375672D01*
X84506637Y-109774989D02*
X86663313Y-107618313D01*
X84930902Y-103057474D02*
X86203694Y-101784682D01*
X80285210Y-106628364D02*
X84506637Y-110849791D01*
X80758972Y-105744480D02*
X79875088Y-106628364D01*
X80299352Y-106628364D02*
X80829682Y-107158694D01*
X86734024Y-103375672D02*
X88819989Y-105461637D01*
%TO.C,LOGO2*%
G36*
X93271696Y-44508717D02*
G01*
X93368307Y-44513238D01*
X93428949Y-44521152D01*
X93443778Y-44528764D01*
X93424270Y-44558329D01*
X93374564Y-44611639D01*
X93307887Y-44676377D01*
X93237464Y-44740228D01*
X93176521Y-44790877D01*
X93138284Y-44816006D01*
X93134360Y-44816888D01*
X93103775Y-44798278D01*
X93054844Y-44752821D01*
X93048666Y-44746333D01*
X92999116Y-44698741D01*
X92966005Y-44676083D01*
X92964005Y-44675777D01*
X92939145Y-44694555D01*
X92880213Y-44747012D01*
X92793464Y-44827338D01*
X92685151Y-44929718D01*
X92561531Y-45048341D01*
X92524424Y-45084259D01*
X92103222Y-45492740D01*
X91862776Y-45493481D01*
X91622329Y-45494222D01*
X91088337Y-44958000D01*
X90708263Y-44958000D01*
X90495576Y-44744621D01*
X90408668Y-44656359D01*
X90338913Y-44583480D01*
X90294556Y-44534726D01*
X90282889Y-44519046D01*
X90307894Y-44512348D01*
X90370269Y-44510561D01*
X90394282Y-44511215D01*
X90463876Y-44520729D01*
X90525110Y-44549637D01*
X90595263Y-44607841D01*
X90640166Y-44652123D01*
X90713417Y-44724318D01*
X90768255Y-44765148D01*
X90825785Y-44783552D01*
X90907109Y-44788471D01*
X90962497Y-44788666D01*
X91150338Y-44788666D01*
X91430400Y-45070888D01*
X91710461Y-45353111D01*
X92019261Y-45353111D01*
X92438575Y-44933097D01*
X92857888Y-44513083D01*
X93150833Y-44508404D01*
X93271696Y-44508717D01*
G37*
D14*
X93271696Y-44508717D02*
X93368307Y-44513238D01*
X93428949Y-44521152D01*
X93443778Y-44528764D01*
X93424270Y-44558329D01*
X93374564Y-44611639D01*
X93307887Y-44676377D01*
X93237464Y-44740228D01*
X93176521Y-44790877D01*
X93138284Y-44816006D01*
X93134360Y-44816888D01*
X93103775Y-44798278D01*
X93054844Y-44752821D01*
X93048666Y-44746333D01*
X92999116Y-44698741D01*
X92966005Y-44676083D01*
X92964005Y-44675777D01*
X92939145Y-44694555D01*
X92880213Y-44747012D01*
X92793464Y-44827338D01*
X92685151Y-44929718D01*
X92561531Y-45048341D01*
X92524424Y-45084259D01*
X92103222Y-45492740D01*
X91862776Y-45493481D01*
X91622329Y-45494222D01*
X91088337Y-44958000D01*
X90708263Y-44958000D01*
X90495576Y-44744621D01*
X90408668Y-44656359D01*
X90338913Y-44583480D01*
X90294556Y-44534726D01*
X90282889Y-44519046D01*
X90307894Y-44512348D01*
X90370269Y-44510561D01*
X90394282Y-44511215D01*
X90463876Y-44520729D01*
X90525110Y-44549637D01*
X90595263Y-44607841D01*
X90640166Y-44652123D01*
X90713417Y-44724318D01*
X90768255Y-44765148D01*
X90825785Y-44783552D01*
X90907109Y-44788471D01*
X90962497Y-44788666D01*
X91150338Y-44788666D01*
X91430400Y-45070888D01*
X91710461Y-45353111D01*
X92019261Y-45353111D01*
X92438575Y-44933097D01*
X92857888Y-44513083D01*
X93150833Y-44508404D01*
X93271696Y-44508717D01*
G36*
X91593722Y-44760444D02*
G01*
X91693179Y-44855967D01*
X91779460Y-44935086D01*
X91844081Y-44990286D01*
X91878558Y-45014053D01*
X91880501Y-45014444D01*
X91909707Y-44995253D01*
X91969307Y-44942873D01*
X92050880Y-44865096D01*
X92146006Y-44769714D01*
X92155030Y-44760444D01*
X92261213Y-44652896D01*
X92338442Y-44580416D01*
X92395759Y-44536336D01*
X92442208Y-44513985D01*
X92486833Y-44506695D01*
X92499449Y-44506444D01*
X92564315Y-44511938D01*
X92596379Y-44525426D01*
X92597111Y-44528071D01*
X92578105Y-44554370D01*
X92525612Y-44612992D01*
X92446416Y-44696710D01*
X92347300Y-44798297D01*
X92279169Y-44866738D01*
X92140974Y-45003636D01*
X92033586Y-45101761D01*
X91947195Y-45161532D01*
X91871989Y-45183368D01*
X91798156Y-45167688D01*
X91715887Y-45114910D01*
X91615368Y-45025455D01*
X91487610Y-44900551D01*
X91200111Y-44617325D01*
X91024872Y-44622739D01*
X90892963Y-44616849D01*
X90804701Y-44590830D01*
X90764632Y-44546270D01*
X90762666Y-44531211D01*
X90788906Y-44520878D01*
X90859714Y-44512659D01*
X90963225Y-44507580D01*
X91048690Y-44506444D01*
X91334714Y-44506444D01*
X91593722Y-44760444D01*
G37*
X91593722Y-44760444D02*
X91693179Y-44855967D01*
X91779460Y-44935086D01*
X91844081Y-44990286D01*
X91878558Y-45014053D01*
X91880501Y-45014444D01*
X91909707Y-44995253D01*
X91969307Y-44942873D01*
X92050880Y-44865096D01*
X92146006Y-44769714D01*
X92155030Y-44760444D01*
X92261213Y-44652896D01*
X92338442Y-44580416D01*
X92395759Y-44536336D01*
X92442208Y-44513985D01*
X92486833Y-44506695D01*
X92499449Y-44506444D01*
X92564315Y-44511938D01*
X92596379Y-44525426D01*
X92597111Y-44528071D01*
X92578105Y-44554370D01*
X92525612Y-44612992D01*
X92446416Y-44696710D01*
X92347300Y-44798297D01*
X92279169Y-44866738D01*
X92140974Y-45003636D01*
X92033586Y-45101761D01*
X91947195Y-45161532D01*
X91871989Y-45183368D01*
X91798156Y-45167688D01*
X91715887Y-45114910D01*
X91615368Y-45025455D01*
X91487610Y-44900551D01*
X91200111Y-44617325D01*
X91024872Y-44622739D01*
X90892963Y-44616849D01*
X90804701Y-44590830D01*
X90764632Y-44546270D01*
X90762666Y-44531211D01*
X90788906Y-44520878D01*
X90859714Y-44512659D01*
X90963225Y-44507580D01*
X91048690Y-44506444D01*
X91334714Y-44506444D01*
X91593722Y-44760444D01*
G36*
X92916566Y-41496770D02*
G01*
X92921959Y-41486101D01*
X92995977Y-41392677D01*
X93089334Y-41348727D01*
X93191465Y-41355854D01*
X93291807Y-41415657D01*
X93304837Y-41428051D01*
X93372798Y-41527727D01*
X93390992Y-41630719D01*
X93363222Y-41725302D01*
X93293289Y-41799754D01*
X93184996Y-41842351D01*
X93169685Y-41844755D01*
X93087700Y-41849802D01*
X93029987Y-41830458D01*
X92967535Y-41776762D01*
X92965362Y-41774593D01*
X92898685Y-41686882D01*
X92885012Y-41609692D01*
X93064467Y-41609692D01*
X93084738Y-41652560D01*
X93140611Y-41682573D01*
X93187304Y-41663085D01*
X93200961Y-41639342D01*
X93204888Y-41577435D01*
X93162090Y-41545841D01*
X93134687Y-41543111D01*
X93082283Y-41563553D01*
X93064467Y-41609692D01*
X92885012Y-41609692D01*
X92883201Y-41599471D01*
X92916566Y-41496770D01*
G37*
X92916566Y-41496770D02*
X92921959Y-41486101D01*
X92995977Y-41392677D01*
X93089334Y-41348727D01*
X93191465Y-41355854D01*
X93291807Y-41415657D01*
X93304837Y-41428051D01*
X93372798Y-41527727D01*
X93390992Y-41630719D01*
X93363222Y-41725302D01*
X93293289Y-41799754D01*
X93184996Y-41842351D01*
X93169685Y-41844755D01*
X93087700Y-41849802D01*
X93029987Y-41830458D01*
X92967535Y-41776762D01*
X92965362Y-41774593D01*
X92898685Y-41686882D01*
X92885012Y-41609692D01*
X93064467Y-41609692D01*
X93084738Y-41652560D01*
X93140611Y-41682573D01*
X93187304Y-41663085D01*
X93200961Y-41639342D01*
X93204888Y-41577435D01*
X93162090Y-41545841D01*
X93134687Y-41543111D01*
X93082283Y-41563553D01*
X93064467Y-41609692D01*
X92885012Y-41609692D01*
X92883201Y-41599471D01*
X92916566Y-41496770D01*
G36*
X89028508Y-44508946D02*
G01*
X89060531Y-44519195D01*
X89099294Y-44541304D01*
X89149506Y-44579387D01*
X89215875Y-44637558D01*
X89303108Y-44719929D01*
X89415914Y-44830615D01*
X89559000Y-44973728D01*
X89725241Y-45141422D01*
X90353444Y-45776400D01*
X90751596Y-45776444D01*
X91212520Y-46242111D01*
X91344055Y-46374242D01*
X91462526Y-46491811D01*
X91562163Y-46589206D01*
X91637195Y-46660820D01*
X91681851Y-46701042D01*
X91691593Y-46707777D01*
X91718162Y-46689014D01*
X91774181Y-46638736D01*
X91849822Y-46565962D01*
X91891555Y-46524333D01*
X92073369Y-46340888D01*
X92440828Y-46340888D01*
X92701924Y-46080878D01*
X92963021Y-45820867D01*
X93149487Y-46001597D01*
X93851621Y-45296354D01*
X94015568Y-45132549D01*
X94167651Y-44982261D01*
X94303151Y-44850025D01*
X94417350Y-44740377D01*
X94505531Y-44657851D01*
X94562974Y-44606983D01*
X94584378Y-44592008D01*
X94630290Y-44608500D01*
X94662900Y-44629309D01*
X94671658Y-44641949D01*
X94669000Y-44662075D01*
X94651567Y-44693425D01*
X94616000Y-44739734D01*
X94558940Y-44804741D01*
X94477028Y-44892183D01*
X94366905Y-45005796D01*
X94225211Y-45149318D01*
X94048588Y-45326486D01*
X93927762Y-45447186D01*
X93144724Y-46228660D01*
X93052818Y-46138805D01*
X92960912Y-46048949D01*
X92743109Y-46265474D01*
X92525307Y-46482000D01*
X92154873Y-46482000D01*
X91926656Y-46707777D01*
X91835395Y-46797304D01*
X91759798Y-46870033D01*
X91708210Y-46918031D01*
X91689164Y-46933531D01*
X91667507Y-46914431D01*
X91611500Y-46860734D01*
X91526634Y-46777829D01*
X91418400Y-46671102D01*
X91292289Y-46545939D01*
X91186000Y-46439935D01*
X90692111Y-45946363D01*
X90494344Y-45946070D01*
X90296576Y-45945777D01*
X89598288Y-45247070D01*
X89435600Y-45083706D01*
X89286345Y-44932718D01*
X89155061Y-44798783D01*
X89046286Y-44686576D01*
X88964555Y-44600774D01*
X88914408Y-44546052D01*
X88900000Y-44527403D01*
X88924826Y-44513530D01*
X88985844Y-44506618D01*
X88998519Y-44506444D01*
X89028508Y-44508946D01*
G37*
X89028508Y-44508946D02*
X89060531Y-44519195D01*
X89099294Y-44541304D01*
X89149506Y-44579387D01*
X89215875Y-44637558D01*
X89303108Y-44719929D01*
X89415914Y-44830615D01*
X89559000Y-44973728D01*
X89725241Y-45141422D01*
X90353444Y-45776400D01*
X90751596Y-45776444D01*
X91212520Y-46242111D01*
X91344055Y-46374242D01*
X91462526Y-46491811D01*
X91562163Y-46589206D01*
X91637195Y-46660820D01*
X91681851Y-46701042D01*
X91691593Y-46707777D01*
X91718162Y-46689014D01*
X91774181Y-46638736D01*
X91849822Y-46565962D01*
X91891555Y-46524333D01*
X92073369Y-46340888D01*
X92440828Y-46340888D01*
X92701924Y-46080878D01*
X92963021Y-45820867D01*
X93149487Y-46001597D01*
X93851621Y-45296354D01*
X94015568Y-45132549D01*
X94167651Y-44982261D01*
X94303151Y-44850025D01*
X94417350Y-44740377D01*
X94505531Y-44657851D01*
X94562974Y-44606983D01*
X94584378Y-44592008D01*
X94630290Y-44608500D01*
X94662900Y-44629309D01*
X94671658Y-44641949D01*
X94669000Y-44662075D01*
X94651567Y-44693425D01*
X94616000Y-44739734D01*
X94558940Y-44804741D01*
X94477028Y-44892183D01*
X94366905Y-45005796D01*
X94225211Y-45149318D01*
X94048588Y-45326486D01*
X93927762Y-45447186D01*
X93144724Y-46228660D01*
X93052818Y-46138805D01*
X92960912Y-46048949D01*
X92743109Y-46265474D01*
X92525307Y-46482000D01*
X92154873Y-46482000D01*
X91926656Y-46707777D01*
X91835395Y-46797304D01*
X91759798Y-46870033D01*
X91708210Y-46918031D01*
X91689164Y-46933531D01*
X91667507Y-46914431D01*
X91611500Y-46860734D01*
X91526634Y-46777829D01*
X91418400Y-46671102D01*
X91292289Y-46545939D01*
X91186000Y-46439935D01*
X90692111Y-45946363D01*
X90494344Y-45946070D01*
X90296576Y-45945777D01*
X89598288Y-45247070D01*
X89435600Y-45083706D01*
X89286345Y-44932718D01*
X89155061Y-44798783D01*
X89046286Y-44686576D01*
X88964555Y-44600774D01*
X88914408Y-44546052D01*
X88900000Y-44527403D01*
X88924826Y-44513530D01*
X88985844Y-44506618D01*
X88998519Y-44506444D01*
X89028508Y-44508946D01*
G36*
X89918490Y-43510565D02*
G01*
X89993486Y-43453481D01*
X90088554Y-43434000D01*
X90148231Y-43424357D01*
X90212286Y-43390207D01*
X90293597Y-43323715D01*
X90338258Y-43282100D01*
X90401286Y-43221981D01*
X91613647Y-43221981D01*
X91620858Y-43253992D01*
X91654817Y-43286838D01*
X91700699Y-43280517D01*
X91737406Y-43241641D01*
X91745351Y-43214989D01*
X91739781Y-43165261D01*
X91697628Y-43151777D01*
X91634335Y-43171042D01*
X91613647Y-43221981D01*
X90401286Y-43221981D01*
X90497508Y-43130201D01*
X90965157Y-43129192D01*
X91137571Y-43128583D01*
X91262808Y-43126769D01*
X91350134Y-43122486D01*
X91408817Y-43114465D01*
X91448123Y-43101441D01*
X91477319Y-43082147D01*
X91505674Y-43055316D01*
X91505676Y-43055313D01*
X91599561Y-42993051D01*
X91698094Y-42977625D01*
X91790877Y-43001784D01*
X91867512Y-43058280D01*
X91917601Y-43139864D01*
X91930748Y-43239286D01*
X91904613Y-43333455D01*
X91837199Y-43418822D01*
X91744377Y-43465141D01*
X91642088Y-43470022D01*
X91546274Y-43431076D01*
X91504853Y-43393355D01*
X91480018Y-43366250D01*
X91453391Y-43346946D01*
X91415638Y-43334120D01*
X91357426Y-43326447D01*
X91269418Y-43322604D01*
X91142281Y-43321267D01*
X90995526Y-43321111D01*
X90548344Y-43321111D01*
X90438157Y-43433952D01*
X90373072Y-43506648D01*
X90341289Y-43565343D01*
X90332838Y-43632278D01*
X90333779Y-43666785D01*
X90323291Y-43782515D01*
X90274616Y-43861828D01*
X90187029Y-43912668D01*
X90121180Y-43934803D01*
X90076504Y-43936520D01*
X90028889Y-43922068D01*
X89936969Y-43864864D01*
X89881506Y-43782540D01*
X89860963Y-43687667D01*
X89861165Y-43686168D01*
X90031364Y-43686168D01*
X90045265Y-43733977D01*
X90058830Y-43745507D01*
X90117125Y-43757118D01*
X90157653Y-43725160D01*
X90164436Y-43677352D01*
X90135346Y-43626879D01*
X90099831Y-43617444D01*
X90052263Y-43638858D01*
X90031364Y-43686168D01*
X89861165Y-43686168D01*
X89873804Y-43592817D01*
X89918490Y-43510565D01*
G37*
X89918490Y-43510565D02*
X89993486Y-43453481D01*
X90088554Y-43434000D01*
X90148231Y-43424357D01*
X90212286Y-43390207D01*
X90293597Y-43323715D01*
X90338258Y-43282100D01*
X90401286Y-43221981D01*
X91613647Y-43221981D01*
X91620858Y-43253992D01*
X91654817Y-43286838D01*
X91700699Y-43280517D01*
X91737406Y-43241641D01*
X91745351Y-43214989D01*
X91739781Y-43165261D01*
X91697628Y-43151777D01*
X91634335Y-43171042D01*
X91613647Y-43221981D01*
X90401286Y-43221981D01*
X90497508Y-43130201D01*
X90965157Y-43129192D01*
X91137571Y-43128583D01*
X91262808Y-43126769D01*
X91350134Y-43122486D01*
X91408817Y-43114465D01*
X91448123Y-43101441D01*
X91477319Y-43082147D01*
X91505674Y-43055316D01*
X91505676Y-43055313D01*
X91599561Y-42993051D01*
X91698094Y-42977625D01*
X91790877Y-43001784D01*
X91867512Y-43058280D01*
X91917601Y-43139864D01*
X91930748Y-43239286D01*
X91904613Y-43333455D01*
X91837199Y-43418822D01*
X91744377Y-43465141D01*
X91642088Y-43470022D01*
X91546274Y-43431076D01*
X91504853Y-43393355D01*
X91480018Y-43366250D01*
X91453391Y-43346946D01*
X91415638Y-43334120D01*
X91357426Y-43326447D01*
X91269418Y-43322604D01*
X91142281Y-43321267D01*
X90995526Y-43321111D01*
X90548344Y-43321111D01*
X90438157Y-43433952D01*
X90373072Y-43506648D01*
X90341289Y-43565343D01*
X90332838Y-43632278D01*
X90333779Y-43666785D01*
X90323291Y-43782515D01*
X90274616Y-43861828D01*
X90187029Y-43912668D01*
X90121180Y-43934803D01*
X90076504Y-43936520D01*
X90028889Y-43922068D01*
X89936969Y-43864864D01*
X89881506Y-43782540D01*
X89860963Y-43687667D01*
X89861165Y-43686168D01*
X90031364Y-43686168D01*
X90045265Y-43733977D01*
X90058830Y-43745507D01*
X90117125Y-43757118D01*
X90157653Y-43725160D01*
X90164436Y-43677352D01*
X90135346Y-43626879D01*
X90099831Y-43617444D01*
X90052263Y-43638858D01*
X90031364Y-43686168D01*
X89861165Y-43686168D01*
X89873804Y-43592817D01*
X89918490Y-43510565D01*
G36*
X90630696Y-43555938D02*
G01*
X90667737Y-43508404D01*
X90765015Y-43444656D01*
X90869804Y-43434927D01*
X90974039Y-43478984D01*
X91021008Y-43518666D01*
X91105675Y-43603333D01*
X92310547Y-43603333D01*
X92395213Y-43518666D01*
X92490088Y-43453956D01*
X92587147Y-43436321D01*
X92677719Y-43457830D01*
X92753132Y-43510552D01*
X92804717Y-43586554D01*
X92823800Y-43677905D01*
X92801711Y-43776673D01*
X92755328Y-43848062D01*
X92668534Y-43911513D01*
X92565936Y-43932161D01*
X92465319Y-43909930D01*
X92388253Y-43849636D01*
X92326879Y-43772666D01*
X91699995Y-43772666D01*
X91473383Y-43773939D01*
X91295441Y-43777697D01*
X91168175Y-43783849D01*
X91093590Y-43792302D01*
X91073111Y-43801303D01*
X91050214Y-43834607D01*
X90994766Y-43876646D01*
X90926628Y-43915212D01*
X90865662Y-43938094D01*
X90847333Y-43940105D01*
X90787398Y-43928457D01*
X90744519Y-43914015D01*
X90657213Y-43851889D01*
X90607122Y-43760841D01*
X90599063Y-43675743D01*
X90770075Y-43675743D01*
X90791187Y-43730692D01*
X90824214Y-43765754D01*
X90850545Y-43762816D01*
X90888625Y-43727343D01*
X90917584Y-43682399D01*
X92515164Y-43682399D01*
X92522650Y-43730333D01*
X92555704Y-43769404D01*
X92601586Y-43754556D01*
X92625035Y-43730692D01*
X92646470Y-43674317D01*
X92629502Y-43624293D01*
X92583000Y-43603333D01*
X92535772Y-43626728D01*
X92515164Y-43682399D01*
X90917584Y-43682399D01*
X90917674Y-43682260D01*
X90901296Y-43642676D01*
X90852791Y-43608494D01*
X90828881Y-43603333D01*
X90784865Y-43625350D01*
X90770075Y-43675743D01*
X90599063Y-43675743D01*
X90597274Y-43656861D01*
X90630696Y-43555938D01*
G37*
X90630696Y-43555938D02*
X90667737Y-43508404D01*
X90765015Y-43444656D01*
X90869804Y-43434927D01*
X90974039Y-43478984D01*
X91021008Y-43518666D01*
X91105675Y-43603333D01*
X92310547Y-43603333D01*
X92395213Y-43518666D01*
X92490088Y-43453956D01*
X92587147Y-43436321D01*
X92677719Y-43457830D01*
X92753132Y-43510552D01*
X92804717Y-43586554D01*
X92823800Y-43677905D01*
X92801711Y-43776673D01*
X92755328Y-43848062D01*
X92668534Y-43911513D01*
X92565936Y-43932161D01*
X92465319Y-43909930D01*
X92388253Y-43849636D01*
X92326879Y-43772666D01*
X91699995Y-43772666D01*
X91473383Y-43773939D01*
X91295441Y-43777697D01*
X91168175Y-43783849D01*
X91093590Y-43792302D01*
X91073111Y-43801303D01*
X91050214Y-43834607D01*
X90994766Y-43876646D01*
X90926628Y-43915212D01*
X90865662Y-43938094D01*
X90847333Y-43940105D01*
X90787398Y-43928457D01*
X90744519Y-43914015D01*
X90657213Y-43851889D01*
X90607122Y-43760841D01*
X90599063Y-43675743D01*
X90770075Y-43675743D01*
X90791187Y-43730692D01*
X90824214Y-43765754D01*
X90850545Y-43762816D01*
X90888625Y-43727343D01*
X90917584Y-43682399D01*
X92515164Y-43682399D01*
X92522650Y-43730333D01*
X92555704Y-43769404D01*
X92601586Y-43754556D01*
X92625035Y-43730692D01*
X92646470Y-43674317D01*
X92629502Y-43624293D01*
X92583000Y-43603333D01*
X92535772Y-43626728D01*
X92515164Y-43682399D01*
X90917584Y-43682399D01*
X90917674Y-43682260D01*
X90901296Y-43642676D01*
X90852791Y-43608494D01*
X90828881Y-43603333D01*
X90784865Y-43625350D01*
X90770075Y-43675743D01*
X90599063Y-43675743D01*
X90597274Y-43656861D01*
X90630696Y-43555938D01*
G36*
X91859157Y-44510946D02*
G01*
X91978580Y-44512062D01*
X92073600Y-44514579D01*
X92132355Y-44518085D01*
X92145555Y-44520913D01*
X92127789Y-44544564D01*
X92081073Y-44597924D01*
X92015286Y-44669730D01*
X92011135Y-44674179D01*
X91876714Y-44818102D01*
X91724736Y-44664212D01*
X91572758Y-44510323D01*
X91859157Y-44510946D01*
G37*
X91859157Y-44510946D02*
X91978580Y-44512062D01*
X92073600Y-44514579D01*
X92132355Y-44518085D01*
X92145555Y-44520913D01*
X92127789Y-44544564D01*
X92081073Y-44597924D01*
X92015286Y-44669730D01*
X92011135Y-44674179D01*
X91876714Y-44818102D01*
X91724736Y-44664212D01*
X91572758Y-44510323D01*
X91859157Y-44510946D01*
G36*
X89518273Y-44514361D02*
G01*
X89554648Y-44529787D01*
X89600113Y-44560778D01*
X89660553Y-44612005D01*
X89741852Y-44688143D01*
X89849893Y-44793864D01*
X89990561Y-44933840D01*
X90027462Y-44970686D01*
X90496288Y-45438903D01*
X90678866Y-45440541D01*
X90861444Y-45442180D01*
X91271431Y-45849623D01*
X91681418Y-46257067D01*
X91806474Y-46129644D01*
X91875865Y-46061511D01*
X91929391Y-46023393D01*
X91988420Y-46006575D01*
X92074322Y-46002343D01*
X92118934Y-46002222D01*
X92306338Y-46002222D01*
X92626658Y-45677558D01*
X92946979Y-45352895D01*
X93040783Y-45443813D01*
X93134586Y-45534731D01*
X93651285Y-45018599D01*
X93808317Y-44861972D01*
X93930984Y-44740839D01*
X94024798Y-44650744D01*
X94095271Y-44587232D01*
X94147912Y-44545847D01*
X94188235Y-44522135D01*
X94221751Y-44511640D01*
X94253970Y-44509907D01*
X94278578Y-44511511D01*
X94389173Y-44520555D01*
X93773065Y-45127333D01*
X93619260Y-45278413D01*
X93478157Y-45416257D01*
X93354820Y-45535979D01*
X93254313Y-45632691D01*
X93181700Y-45701506D01*
X93142046Y-45737536D01*
X93136463Y-45741708D01*
X93105438Y-45728383D01*
X93056426Y-45685758D01*
X93049176Y-45678208D01*
X92995695Y-45630033D01*
X92954341Y-45607364D01*
X92951495Y-45607111D01*
X92921416Y-45626140D01*
X92860020Y-45678389D01*
X92775328Y-45756604D01*
X92675365Y-45853527D01*
X92639444Y-45889333D01*
X92358281Y-46171555D01*
X91991970Y-46171555D01*
X91678732Y-46481525D01*
X91242207Y-46044318D01*
X90805683Y-45607111D01*
X90438111Y-45606009D01*
X89888996Y-45063282D01*
X89339880Y-44520555D01*
X89449258Y-44511512D01*
X89485105Y-44509827D01*
X89518273Y-44514361D01*
G37*
X89518273Y-44514361D02*
X89554648Y-44529787D01*
X89600113Y-44560778D01*
X89660553Y-44612005D01*
X89741852Y-44688143D01*
X89849893Y-44793864D01*
X89990561Y-44933840D01*
X90027462Y-44970686D01*
X90496288Y-45438903D01*
X90678866Y-45440541D01*
X90861444Y-45442180D01*
X91271431Y-45849623D01*
X91681418Y-46257067D01*
X91806474Y-46129644D01*
X91875865Y-46061511D01*
X91929391Y-46023393D01*
X91988420Y-46006575D01*
X92074322Y-46002343D01*
X92118934Y-46002222D01*
X92306338Y-46002222D01*
X92626658Y-45677558D01*
X92946979Y-45352895D01*
X93040783Y-45443813D01*
X93134586Y-45534731D01*
X93651285Y-45018599D01*
X93808317Y-44861972D01*
X93930984Y-44740839D01*
X94024798Y-44650744D01*
X94095271Y-44587232D01*
X94147912Y-44545847D01*
X94188235Y-44522135D01*
X94221751Y-44511640D01*
X94253970Y-44509907D01*
X94278578Y-44511511D01*
X94389173Y-44520555D01*
X93773065Y-45127333D01*
X93619260Y-45278413D01*
X93478157Y-45416257D01*
X93354820Y-45535979D01*
X93254313Y-45632691D01*
X93181700Y-45701506D01*
X93142046Y-45737536D01*
X93136463Y-45741708D01*
X93105438Y-45728383D01*
X93056426Y-45685758D01*
X93049176Y-45678208D01*
X92995695Y-45630033D01*
X92954341Y-45607364D01*
X92951495Y-45607111D01*
X92921416Y-45626140D01*
X92860020Y-45678389D01*
X92775328Y-45756604D01*
X92675365Y-45853527D01*
X92639444Y-45889333D01*
X92358281Y-46171555D01*
X91991970Y-46171555D01*
X91678732Y-46481525D01*
X91242207Y-46044318D01*
X90805683Y-45607111D01*
X90438111Y-45606009D01*
X89888996Y-45063282D01*
X89339880Y-44520555D01*
X89449258Y-44511512D01*
X89485105Y-44509827D01*
X89518273Y-44514361D01*
G36*
X93810084Y-44510786D02*
G01*
X93812780Y-44510943D01*
X93926226Y-44517637D01*
X93130778Y-45310777D01*
X93044459Y-45215330D01*
X92958139Y-45119883D01*
X92600844Y-45476386D01*
X92243548Y-45832888D01*
X92058721Y-45832888D01*
X91955021Y-45835366D01*
X91888351Y-45846902D01*
X91839372Y-45873655D01*
X91792778Y-45917555D01*
X91738836Y-45970226D01*
X91701767Y-45999831D01*
X91695775Y-46002190D01*
X91671515Y-45983343D01*
X91613923Y-45931040D01*
X91529714Y-45851606D01*
X91425601Y-45751364D01*
X91321273Y-45649412D01*
X90962658Y-45296666D01*
X90578438Y-45296666D01*
X90204885Y-44922343D01*
X90087429Y-44803514D01*
X89985119Y-44697847D01*
X89904182Y-44611952D01*
X89850846Y-44552440D01*
X89831336Y-44525919D01*
X89831333Y-44525821D01*
X89856166Y-44514446D01*
X89918253Y-44512906D01*
X89944095Y-44514898D01*
X89992274Y-44523293D01*
X90039074Y-44542363D01*
X90092793Y-44578424D01*
X90161729Y-44637792D01*
X90254180Y-44726783D01*
X90353816Y-44826753D01*
X90650775Y-45127333D01*
X90844237Y-45127333D01*
X90947811Y-45128858D01*
X91014880Y-45138636D01*
X91065380Y-45164467D01*
X91119251Y-45214153D01*
X91150756Y-45247277D01*
X91220983Y-45320078D01*
X91316371Y-45416698D01*
X91421568Y-45521656D01*
X91478166Y-45577447D01*
X91692520Y-45787673D01*
X91758579Y-45725614D01*
X91807923Y-45689822D01*
X91870863Y-45670775D01*
X91965637Y-45663918D01*
X92007147Y-45663555D01*
X92189657Y-45663555D01*
X92563710Y-45282555D01*
X92681912Y-45163304D01*
X92787132Y-45059322D01*
X92872856Y-44976868D01*
X92932574Y-44922202D01*
X92959773Y-44901583D01*
X92960073Y-44901555D01*
X92992716Y-44920244D01*
X93042712Y-44965866D01*
X93048666Y-44972111D01*
X93101308Y-45020004D01*
X93141027Y-45042435D01*
X93143561Y-45042666D01*
X93172884Y-45023514D01*
X93233036Y-44971074D01*
X93315856Y-44892865D01*
X93413178Y-44796409D01*
X93435753Y-44773458D01*
X93543289Y-44664507D01*
X93620746Y-44589995D01*
X93677140Y-44543643D01*
X93721484Y-44519176D01*
X93762794Y-44510316D01*
X93810084Y-44510786D01*
G37*
X93810084Y-44510786D02*
X93812780Y-44510943D01*
X93926226Y-44517637D01*
X93130778Y-45310777D01*
X93044459Y-45215330D01*
X92958139Y-45119883D01*
X92600844Y-45476386D01*
X92243548Y-45832888D01*
X92058721Y-45832888D01*
X91955021Y-45835366D01*
X91888351Y-45846902D01*
X91839372Y-45873655D01*
X91792778Y-45917555D01*
X91738836Y-45970226D01*
X91701767Y-45999831D01*
X91695775Y-46002190D01*
X91671515Y-45983343D01*
X91613923Y-45931040D01*
X91529714Y-45851606D01*
X91425601Y-45751364D01*
X91321273Y-45649412D01*
X90962658Y-45296666D01*
X90578438Y-45296666D01*
X90204885Y-44922343D01*
X90087429Y-44803514D01*
X89985119Y-44697847D01*
X89904182Y-44611952D01*
X89850846Y-44552440D01*
X89831336Y-44525919D01*
X89831333Y-44525821D01*
X89856166Y-44514446D01*
X89918253Y-44512906D01*
X89944095Y-44514898D01*
X89992274Y-44523293D01*
X90039074Y-44542363D01*
X90092793Y-44578424D01*
X90161729Y-44637792D01*
X90254180Y-44726783D01*
X90353816Y-44826753D01*
X90650775Y-45127333D01*
X90844237Y-45127333D01*
X90947811Y-45128858D01*
X91014880Y-45138636D01*
X91065380Y-45164467D01*
X91119251Y-45214153D01*
X91150756Y-45247277D01*
X91220983Y-45320078D01*
X91316371Y-45416698D01*
X91421568Y-45521656D01*
X91478166Y-45577447D01*
X91692520Y-45787673D01*
X91758579Y-45725614D01*
X91807923Y-45689822D01*
X91870863Y-45670775D01*
X91965637Y-45663918D01*
X92007147Y-45663555D01*
X92189657Y-45663555D01*
X92563710Y-45282555D01*
X92681912Y-45163304D01*
X92787132Y-45059322D01*
X92872856Y-44976868D01*
X92932574Y-44922202D01*
X92959773Y-44901583D01*
X92960073Y-44901555D01*
X92992716Y-44920244D01*
X93042712Y-44965866D01*
X93048666Y-44972111D01*
X93101308Y-45020004D01*
X93141027Y-45042435D01*
X93143561Y-45042666D01*
X93172884Y-45023514D01*
X93233036Y-44971074D01*
X93315856Y-44892865D01*
X93413178Y-44796409D01*
X93435753Y-44773458D01*
X93543289Y-44664507D01*
X93620746Y-44589995D01*
X93677140Y-44543643D01*
X93721484Y-44519176D01*
X93762794Y-44510316D01*
X93810084Y-44510786D01*
G36*
X90314382Y-42612566D02*
G01*
X90489135Y-42624944D01*
X90663889Y-42637322D01*
X91174583Y-42130833D01*
X91685277Y-41624345D01*
X91914613Y-41851839D01*
X92143948Y-42079333D01*
X92520365Y-42079333D01*
X92728626Y-42291000D01*
X92816548Y-42378289D01*
X92890716Y-42448076D01*
X92941907Y-42491909D01*
X92959635Y-42502666D01*
X92992589Y-42483965D01*
X93042746Y-42438319D01*
X93048666Y-42432111D01*
X93099925Y-42384351D01*
X93136688Y-42361818D01*
X93139015Y-42361555D01*
X93164631Y-42380682D01*
X93224662Y-42434619D01*
X93313674Y-42518199D01*
X93426234Y-42626256D01*
X93556908Y-42753622D01*
X93700263Y-42895132D01*
X93702926Y-42897777D01*
X93865066Y-43058404D01*
X93992772Y-43183407D01*
X94091374Y-43277223D01*
X94166201Y-43344287D01*
X94222584Y-43389037D01*
X94265852Y-43415907D01*
X94301335Y-43429336D01*
X94334363Y-43433758D01*
X94347154Y-43434000D01*
X94459388Y-43455651D01*
X94539844Y-43512731D01*
X94587635Y-43593426D01*
X94601876Y-43685923D01*
X94581678Y-43778411D01*
X94526156Y-43859075D01*
X94434424Y-43916104D01*
X94384400Y-43930264D01*
X94317806Y-43933587D01*
X94257244Y-43906892D01*
X94203245Y-43863291D01*
X94141570Y-43798651D01*
X94115936Y-43736735D01*
X94113991Y-43686168D01*
X94292920Y-43686168D01*
X94306821Y-43733977D01*
X94320386Y-43745507D01*
X94378680Y-43757118D01*
X94419209Y-43725160D01*
X94425992Y-43677352D01*
X94396901Y-43626879D01*
X94361386Y-43617444D01*
X94313819Y-43638858D01*
X94292920Y-43686168D01*
X94113991Y-43686168D01*
X94113291Y-43667984D01*
X94113292Y-43631995D01*
X94107088Y-43598191D01*
X94090037Y-43560825D01*
X94057498Y-43514151D01*
X94004827Y-43452422D01*
X93927382Y-43369892D01*
X93820521Y-43260815D01*
X93679601Y-43119443D01*
X93630560Y-43070444D01*
X93143403Y-42583884D01*
X93053136Y-42676211D01*
X92962870Y-42768537D01*
X92701849Y-42508602D01*
X92440828Y-42248666D01*
X92068456Y-42248666D01*
X91880675Y-42059030D01*
X91692893Y-41869394D01*
X91220422Y-42341252D01*
X90747950Y-42813111D01*
X90355931Y-42813111D01*
X89705577Y-43462054D01*
X89055222Y-44110998D01*
X91853258Y-44111165D01*
X92317100Y-44111118D01*
X92727681Y-44110884D01*
X93088187Y-44110416D01*
X93401802Y-44109667D01*
X93671710Y-44108588D01*
X93901095Y-44107132D01*
X94093143Y-44105251D01*
X94251036Y-44102897D01*
X94377960Y-44100023D01*
X94477099Y-44096581D01*
X94551637Y-44092522D01*
X94604758Y-44087800D01*
X94639648Y-44082367D01*
X94659490Y-44076174D01*
X94667468Y-44069174D01*
X94667555Y-44068958D01*
X94702303Y-44029594D01*
X94766894Y-43987298D01*
X94780423Y-43980514D01*
X94846246Y-43953296D01*
X94896721Y-43951393D01*
X94960144Y-43975790D01*
X94984366Y-43987611D01*
X95080579Y-44061037D01*
X95128203Y-44155558D01*
X95125459Y-44260726D01*
X95070566Y-44366092D01*
X95052437Y-44387061D01*
X94966622Y-44442088D01*
X94865852Y-44449174D01*
X94763558Y-44409167D01*
X94709564Y-44365461D01*
X94625026Y-44280923D01*
X91647750Y-44273739D01*
X88670475Y-44266555D01*
X88724832Y-44211864D01*
X94800873Y-44211864D01*
X94823500Y-44256293D01*
X94875297Y-44276484D01*
X94890040Y-44275590D01*
X94943238Y-44247585D01*
X94953666Y-44210497D01*
X94931237Y-44162074D01*
X94880572Y-44141405D01*
X94826608Y-44157302D01*
X94819921Y-44163234D01*
X94800873Y-44211864D01*
X88724832Y-44211864D01*
X89492428Y-43439560D01*
X90314382Y-42612566D01*
G37*
X90314382Y-42612566D02*
X90489135Y-42624944D01*
X90663889Y-42637322D01*
X91174583Y-42130833D01*
X91685277Y-41624345D01*
X91914613Y-41851839D01*
X92143948Y-42079333D01*
X92520365Y-42079333D01*
X92728626Y-42291000D01*
X92816548Y-42378289D01*
X92890716Y-42448076D01*
X92941907Y-42491909D01*
X92959635Y-42502666D01*
X92992589Y-42483965D01*
X93042746Y-42438319D01*
X93048666Y-42432111D01*
X93099925Y-42384351D01*
X93136688Y-42361818D01*
X93139015Y-42361555D01*
X93164631Y-42380682D01*
X93224662Y-42434619D01*
X93313674Y-42518199D01*
X93426234Y-42626256D01*
X93556908Y-42753622D01*
X93700263Y-42895132D01*
X93702926Y-42897777D01*
X93865066Y-43058404D01*
X93992772Y-43183407D01*
X94091374Y-43277223D01*
X94166201Y-43344287D01*
X94222584Y-43389037D01*
X94265852Y-43415907D01*
X94301335Y-43429336D01*
X94334363Y-43433758D01*
X94347154Y-43434000D01*
X94459388Y-43455651D01*
X94539844Y-43512731D01*
X94587635Y-43593426D01*
X94601876Y-43685923D01*
X94581678Y-43778411D01*
X94526156Y-43859075D01*
X94434424Y-43916104D01*
X94384400Y-43930264D01*
X94317806Y-43933587D01*
X94257244Y-43906892D01*
X94203245Y-43863291D01*
X94141570Y-43798651D01*
X94115936Y-43736735D01*
X94113991Y-43686168D01*
X94292920Y-43686168D01*
X94306821Y-43733977D01*
X94320386Y-43745507D01*
X94378680Y-43757118D01*
X94419209Y-43725160D01*
X94425992Y-43677352D01*
X94396901Y-43626879D01*
X94361386Y-43617444D01*
X94313819Y-43638858D01*
X94292920Y-43686168D01*
X94113991Y-43686168D01*
X94113291Y-43667984D01*
X94113292Y-43631995D01*
X94107088Y-43598191D01*
X94090037Y-43560825D01*
X94057498Y-43514151D01*
X94004827Y-43452422D01*
X93927382Y-43369892D01*
X93820521Y-43260815D01*
X93679601Y-43119443D01*
X93630560Y-43070444D01*
X93143403Y-42583884D01*
X93053136Y-42676211D01*
X92962870Y-42768537D01*
X92701849Y-42508602D01*
X92440828Y-42248666D01*
X92068456Y-42248666D01*
X91880675Y-42059030D01*
X91692893Y-41869394D01*
X91220422Y-42341252D01*
X90747950Y-42813111D01*
X90355931Y-42813111D01*
X89705577Y-43462054D01*
X89055222Y-44110998D01*
X91853258Y-44111165D01*
X92317100Y-44111118D01*
X92727681Y-44110884D01*
X93088187Y-44110416D01*
X93401802Y-44109667D01*
X93671710Y-44108588D01*
X93901095Y-44107132D01*
X94093143Y-44105251D01*
X94251036Y-44102897D01*
X94377960Y-44100023D01*
X94477099Y-44096581D01*
X94551637Y-44092522D01*
X94604758Y-44087800D01*
X94639648Y-44082367D01*
X94659490Y-44076174D01*
X94667468Y-44069174D01*
X94667555Y-44068958D01*
X94702303Y-44029594D01*
X94766894Y-43987298D01*
X94780423Y-43980514D01*
X94846246Y-43953296D01*
X94896721Y-43951393D01*
X94960144Y-43975790D01*
X94984366Y-43987611D01*
X95080579Y-44061037D01*
X95128203Y-44155558D01*
X95125459Y-44260726D01*
X95070566Y-44366092D01*
X95052437Y-44387061D01*
X94966622Y-44442088D01*
X94865852Y-44449174D01*
X94763558Y-44409167D01*
X94709564Y-44365461D01*
X94625026Y-44280923D01*
X91647750Y-44273739D01*
X88670475Y-44266555D01*
X88724832Y-44211864D01*
X94800873Y-44211864D01*
X94823500Y-44256293D01*
X94875297Y-44276484D01*
X94890040Y-44275590D01*
X94943238Y-44247585D01*
X94953666Y-44210497D01*
X94931237Y-44162074D01*
X94880572Y-44141405D01*
X94826608Y-44157302D01*
X94819921Y-44163234D01*
X94800873Y-44211864D01*
X88724832Y-44211864D01*
X89492428Y-43439560D01*
X90314382Y-42612566D01*
G36*
X93034555Y-43222333D02*
G01*
X92660190Y-43214455D01*
X92285825Y-43206578D01*
X92041866Y-42967511D01*
X91936176Y-42865469D01*
X91859858Y-42797274D01*
X91803009Y-42756230D01*
X91755726Y-42735644D01*
X91708107Y-42728821D01*
X91688226Y-42728444D01*
X91577477Y-42706358D01*
X91497775Y-42648140D01*
X91450780Y-42565850D01*
X91440383Y-42488203D01*
X91613647Y-42488203D01*
X91620858Y-42520215D01*
X91654817Y-42553060D01*
X91700699Y-42546739D01*
X91737406Y-42507863D01*
X91745351Y-42481211D01*
X91739781Y-42431483D01*
X91697628Y-42418000D01*
X91634335Y-42437264D01*
X91613647Y-42488203D01*
X91440383Y-42488203D01*
X91438152Y-42471546D01*
X91461552Y-42377290D01*
X91522641Y-42295140D01*
X91620696Y-42237993D01*
X91683081Y-42233611D01*
X91763450Y-42248425D01*
X91771594Y-42250989D01*
X91857859Y-42305552D01*
X91915700Y-42392338D01*
X91934105Y-42491839D01*
X91928472Y-42528912D01*
X91928190Y-42564929D01*
X91949212Y-42609881D01*
X91997437Y-42671997D01*
X92078762Y-42759509D01*
X92133900Y-42815581D01*
X92355898Y-43038888D01*
X93218000Y-43038888D01*
X93218000Y-43321111D01*
X93218475Y-43449191D01*
X93221564Y-43531131D01*
X93229765Y-43577235D01*
X93245574Y-43597806D01*
X93271488Y-43603151D01*
X93286384Y-43603333D01*
X93350787Y-43583440D01*
X93423749Y-43533369D01*
X93439436Y-43518666D01*
X93532811Y-43455284D01*
X93629240Y-43437839D01*
X93719983Y-43458579D01*
X93796297Y-43509752D01*
X93849443Y-43583604D01*
X93870681Y-43672383D01*
X93851269Y-43768337D01*
X93803611Y-43841678D01*
X93708853Y-43912382D01*
X93600943Y-43929802D01*
X93488494Y-43892734D01*
X93479055Y-43887065D01*
X93419818Y-43843355D01*
X93388708Y-43807099D01*
X93387333Y-43801303D01*
X93361513Y-43785763D01*
X93293522Y-43775481D01*
X93219022Y-43772666D01*
X93050710Y-43772666D01*
X93048354Y-43692370D01*
X93560425Y-43692370D01*
X93580306Y-43740364D01*
X93589167Y-43747097D01*
X93636939Y-43750604D01*
X93677188Y-43717146D01*
X93691935Y-43665229D01*
X93687611Y-43645769D01*
X93649029Y-43610634D01*
X93620576Y-43608627D01*
X93575871Y-43639540D01*
X93560425Y-43692370D01*
X93048354Y-43692370D01*
X93042633Y-43497500D01*
X93034555Y-43222333D01*
G37*
X93034555Y-43222333D02*
X92660190Y-43214455D01*
X92285825Y-43206578D01*
X92041866Y-42967511D01*
X91936176Y-42865469D01*
X91859858Y-42797274D01*
X91803009Y-42756230D01*
X91755726Y-42735644D01*
X91708107Y-42728821D01*
X91688226Y-42728444D01*
X91577477Y-42706358D01*
X91497775Y-42648140D01*
X91450780Y-42565850D01*
X91440383Y-42488203D01*
X91613647Y-42488203D01*
X91620858Y-42520215D01*
X91654817Y-42553060D01*
X91700699Y-42546739D01*
X91737406Y-42507863D01*
X91745351Y-42481211D01*
X91739781Y-42431483D01*
X91697628Y-42418000D01*
X91634335Y-42437264D01*
X91613647Y-42488203D01*
X91440383Y-42488203D01*
X91438152Y-42471546D01*
X91461552Y-42377290D01*
X91522641Y-42295140D01*
X91620696Y-42237993D01*
X91683081Y-42233611D01*
X91763450Y-42248425D01*
X91771594Y-42250989D01*
X91857859Y-42305552D01*
X91915700Y-42392338D01*
X91934105Y-42491839D01*
X91928472Y-42528912D01*
X91928190Y-42564929D01*
X91949212Y-42609881D01*
X91997437Y-42671997D01*
X92078762Y-42759509D01*
X92133900Y-42815581D01*
X92355898Y-43038888D01*
X93218000Y-43038888D01*
X93218000Y-43321111D01*
X93218475Y-43449191D01*
X93221564Y-43531131D01*
X93229765Y-43577235D01*
X93245574Y-43597806D01*
X93271488Y-43603151D01*
X93286384Y-43603333D01*
X93350787Y-43583440D01*
X93423749Y-43533369D01*
X93439436Y-43518666D01*
X93532811Y-43455284D01*
X93629240Y-43437839D01*
X93719983Y-43458579D01*
X93796297Y-43509752D01*
X93849443Y-43583604D01*
X93870681Y-43672383D01*
X93851269Y-43768337D01*
X93803611Y-43841678D01*
X93708853Y-43912382D01*
X93600943Y-43929802D01*
X93488494Y-43892734D01*
X93479055Y-43887065D01*
X93419818Y-43843355D01*
X93388708Y-43807099D01*
X93387333Y-43801303D01*
X93361513Y-43785763D01*
X93293522Y-43775481D01*
X93219022Y-43772666D01*
X93050710Y-43772666D01*
X93048354Y-43692370D01*
X93560425Y-43692370D01*
X93580306Y-43740364D01*
X93589167Y-43747097D01*
X93636939Y-43750604D01*
X93677188Y-43717146D01*
X93691935Y-43665229D01*
X93687611Y-43645769D01*
X93649029Y-43610634D01*
X93620576Y-43608627D01*
X93575871Y-43639540D01*
X93560425Y-43692370D01*
X93048354Y-43692370D01*
X93042633Y-43497500D01*
X93034555Y-43222333D01*
%TD*%
M02*
