%TF.GenerationSoftware,KiCad,Pcbnew,(6.0.8)*%
%TF.CreationDate,2023-01-17T07:54:51-05:00*%
%TF.ProjectId,K1+K2 Carabiner for Mosquito,4b312b4b-3220-4436-9172-6162696e6572,rev?*%
%TF.SameCoordinates,Original*%
%TF.FileFunction,Profile,NP*%
%FSLAX46Y46*%
G04 Gerber Fmt 4.6, Leading zero omitted, Abs format (unit mm)*
G04 Created by KiCad (PCBNEW (6.0.8)) date 2023-01-17 07:54:51*
%MOMM*%
%LPD*%
G01*
G04 APERTURE LIST*
%TA.AperFunction,Profile*%
%ADD10C,0.250000*%
%TD*%
%ADD11C,0.250000*%
G04 APERTURE END LIST*
D10*
X72571432Y-43080268D02*
G75*
G03*
X73171432Y-43680268I599968J-32D01*
G01*
X39337684Y-75778962D02*
X37634954Y-74076232D01*
X98506522Y-48843976D02*
X98506522Y-57625089D01*
X52106522Y-116180280D02*
G75*
G03*
X54606109Y-115634813I-22J5999980D01*
G01*
X52606532Y-37080268D02*
G75*
G03*
X52206521Y-36680268I-399432J568D01*
G01*
D11*
X71980362Y-69991432D02*
X71896095Y-70230454D01*
X71838409Y-70478363D01*
X71808286Y-70732052D01*
X71803823Y-70874344D01*
D10*
X82840501Y-87987508D02*
X82840501Y-81192672D01*
X67523946Y-115180268D02*
X56689098Y-115180268D01*
X95721339Y-64549430D02*
G75*
G03*
X98506522Y-57625089I-7214929J6924380D01*
G01*
X52606521Y-32080268D02*
X52606521Y-33280268D01*
X82840495Y-87987508D02*
G75*
G03*
X84304967Y-91523042I5000005J8D01*
G01*
X52106522Y-116180268D02*
X45606190Y-116180268D01*
X72006522Y-36680268D02*
X72606522Y-36680268D01*
X47506522Y-74280268D02*
X71203823Y-74280268D01*
X52314225Y-38461543D02*
G75*
G03*
X52606521Y-38076271I-107725J385243D01*
G01*
X71606533Y-38076271D02*
G75*
G03*
X71898830Y-38461502I399967J-29D01*
G01*
X37634954Y-74076232D02*
X28491708Y-64549428D01*
D11*
X72830395Y-68960214D02*
X72626560Y-69112933D01*
X72480431Y-69246517D01*
D10*
X25706523Y-57625089D02*
G75*
G03*
X28491708Y-64549428I9999977J-11D01*
G01*
X86070736Y-32266054D02*
X95577590Y-41772909D01*
X25706522Y-48843976D02*
X25706522Y-57625089D01*
X52314214Y-38461505D02*
G75*
G03*
X51809317Y-42487136I592306J-2118765D01*
G01*
X72106522Y-116180268D02*
X78606854Y-116180268D01*
X52206521Y-33680221D02*
G75*
G03*
X52606521Y-33280268I579J399421D01*
G01*
D11*
X74108271Y-68577483D02*
X73854312Y-68590651D01*
X73660000Y-68620000D01*
D10*
X28635456Y-41772911D02*
G75*
G03*
X25706522Y-48843976I7071064J-7071069D01*
G01*
X46906522Y-49984242D02*
X46906522Y-73680268D01*
X77506522Y-44280268D02*
X77506522Y-67975478D01*
X50912019Y-46883877D02*
G75*
G03*
X50912019Y-46883877I-800000J0D01*
G01*
X51606521Y-33680272D02*
G75*
G03*
X51606521Y-36680268I-1J-1499998D01*
G01*
X72771839Y-42221318D02*
G75*
G03*
X71898830Y-38461502I-1465339J1641018D01*
G01*
X52606521Y-37080268D02*
X52606521Y-38076271D01*
X91284521Y-105573664D02*
G75*
G03*
X91284523Y-98502598I-3535541J3535534D01*
G01*
X71803823Y-70874344D02*
X71803823Y-73680268D01*
X77506532Y-44280268D02*
G75*
G03*
X76906522Y-43680268I-600032J-32D01*
G01*
X72771804Y-42221279D02*
G75*
G03*
X72571432Y-42668834I399796J-447621D01*
G01*
D11*
X72193701Y-69593341D02*
X72063810Y-69812606D01*
X71980362Y-69991432D01*
D10*
X52110098Y-43007190D02*
G75*
G03*
X51809317Y-42487136I-599998J-10D01*
G01*
X74900025Y-70874171D02*
G75*
G03*
X74900025Y-70874171I-800000J0D01*
G01*
X72006522Y-31680322D02*
G75*
G03*
X71606522Y-32080268I-22J-399978D01*
G01*
X76906952Y-68575478D02*
X74108271Y-68577483D01*
X71203823Y-74280323D02*
G75*
G03*
X71803823Y-73680268I-23J600023D01*
G01*
X91284523Y-98502598D02*
X84304967Y-91523042D01*
X47506522Y-49384222D02*
G75*
G03*
X46906522Y-49984242I-22J-599978D01*
G01*
X51606521Y-36680268D02*
X52206521Y-36680268D01*
X98506532Y-48843976D02*
G75*
G03*
X95577590Y-41772909I-10000032J-24D01*
G01*
X69606932Y-115634819D02*
G75*
G03*
X72106522Y-116180268I2499568J5454519D01*
G01*
X84875361Y-75778963D02*
G75*
G03*
X82840501Y-81192672I4949559J-4949677D01*
G01*
X49632421Y-49384186D02*
G75*
G03*
X52110080Y-46884914I-21721J2499286D01*
G01*
X56689098Y-115180261D02*
G75*
G03*
X54606109Y-115634813I2J-4999939D01*
G01*
X38142308Y-32266054D02*
X28635454Y-41772909D01*
X52206521Y-33680268D02*
X51606521Y-33680268D01*
X32928521Y-98502598D02*
X39908077Y-91523042D01*
D11*
X73227559Y-68750079D02*
X72998854Y-68858691D01*
X72830395Y-68960214D01*
D10*
X82142388Y-114715802D02*
X91284523Y-105573666D01*
X78606854Y-116180274D02*
G75*
G03*
X82142388Y-114715802I46J4999874D01*
G01*
X72571432Y-42668834D02*
X72571432Y-43080268D01*
X72606522Y-33680268D02*
X72006522Y-33680268D01*
X39556522Y-31680292D02*
G75*
G03*
X38142308Y-32266054I-22J-2000008D01*
G01*
X72006522Y-31680268D02*
X84656522Y-31680268D01*
X86656522Y-73994510D02*
X95721336Y-64549428D01*
X84875360Y-75778962D02*
X86656522Y-73997800D01*
X39908082Y-91523047D02*
G75*
G03*
X41372543Y-87987508I-3535582J3535547D01*
G01*
X52110080Y-46884914D02*
X52110080Y-43007190D01*
D11*
X72480431Y-69246517D02*
X72310976Y-69434322D01*
X72193701Y-69593341D01*
D10*
X47506522Y-49384242D02*
X49632421Y-49384242D01*
X42070668Y-114715790D02*
G75*
G03*
X45606190Y-116180268I3535532J3535490D01*
G01*
X72006522Y-36680322D02*
G75*
G03*
X71606522Y-37080268I-522J-399478D01*
G01*
X71606522Y-38076271D02*
X71606522Y-37080268D01*
X46906532Y-73680268D02*
G75*
G03*
X47506522Y-74280268I599968J-32D01*
G01*
X86070731Y-32266059D02*
G75*
G03*
X84656522Y-31680268I-1414231J-1414241D01*
G01*
X52206521Y-31680268D02*
X39556522Y-31680268D01*
X69606936Y-115634812D02*
G75*
G03*
X67523946Y-115180268I-2083036J-4545688D01*
G01*
D11*
X73660000Y-68620000D02*
X73413913Y-68682726D01*
X73227559Y-68750079D01*
D10*
X52606532Y-32080268D02*
G75*
G03*
X52206521Y-31680268I-400032J-32D01*
G01*
X71606522Y-33280268D02*
X71606522Y-32080268D01*
X41372526Y-81192671D02*
G75*
G03*
X39337684Y-75778962I-6984626J463971D01*
G01*
X73171432Y-43680268D02*
X76906522Y-43680268D01*
X86656522Y-73994510D02*
X86656522Y-73997800D01*
X42070656Y-114715802D02*
X32928521Y-105573666D01*
X32928519Y-98502596D02*
G75*
G03*
X32928521Y-105573666I3535541J-3535534D01*
G01*
X71606532Y-33280268D02*
G75*
G03*
X72006522Y-33680268I399468J-532D01*
G01*
X76906952Y-68575522D02*
G75*
G03*
X77506522Y-67975478I-452J600022D01*
G01*
X72606522Y-36680332D02*
G75*
G03*
X72606522Y-33680268I-22J1500032D01*
G01*
X41372543Y-87987508D02*
X41372543Y-81192672D01*
M02*
