M48
; DRILL file {KiCad (6.0.8)} date Tue Jan 17 07:47:08 2023
; FORMAT={-:-/ absolute / inch / decimal}
; #@! TF.CreationDate,2023-01-17T07:47:08-05:00
; #@! TF.GenerationSoftware,Kicad,Pcbnew,(6.0.8)
; #@! TF.FileFunction,Plated,1,2,PTH
FMAT,2
INCH
; #@! TA.AperFunction,Plated,PTH,ViaDrill
T1C0.0236
; #@! TA.AperFunction,Plated,PTH,ComponentDrill
T2C0.0315
; #@! TA.AperFunction,Plated,PTH,ComponentDrill
T3C0.0374
; #@! TA.AperFunction,Plated,PTH,ComponentDrill
T4C0.0394
; #@! TA.AperFunction,Plated,PTH,ComponentDrill
T5C0.0402
; #@! TA.AperFunction,Plated,PTH,ComponentDrill
T6C0.1378
; #@! TA.AperFunction,Plated,PTH,ComponentDrill
T7C0.1772
%
G90
G05
T1
X2.689Y-3.3622
T2
X3.57Y-1.945
X3.67Y-1.945
T3
X1.5902Y-3.791
X1.6598Y-3.8606
X1.7294Y-3.9302
X1.799Y-3.9998
X3.1Y-4.01
X3.1696Y-3.9404
X3.2392Y-3.8708
X3.3088Y-3.8012
T4
X1.2349Y-1.7284
X1.3184Y-1.6449
X1.3184Y-1.812
X1.402Y-1.7284
X1.525Y-4.125
X1.5946Y-4.1946
X3.17Y-2.135
X3.2684Y-2.135
X3.3006Y-4.1952
X3.3702Y-4.1256
T5
X2.0366Y-3.1299
X2.0366Y-3.248
X2.1547Y-3.1299
X2.1547Y-3.248
X2.2728Y-3.1299
X2.2728Y-3.248
X2.3909Y-3.1299
X2.3909Y-3.248
X2.5091Y-3.1299
X2.5091Y-3.248
X2.6272Y-3.1299
X2.6272Y-3.248
X2.7453Y-3.1299
X2.7453Y-3.248
X2.8634Y-3.1299
X2.8634Y-3.248
T6
X1.468Y-2.4573
X1.5888Y-1.385
X3.3014Y-1.385
X3.4223Y-2.4573
T7
X2.0514Y-4.3378
X2.8388Y-4.3378
T0
M30
