%TF.GenerationSoftware,KiCad,Pcbnew,(6.0.8)*%
%TF.CreationDate,2023-01-17T07:54:29-05:00*%
%TF.ProjectId,K1+K2 Carabiner for Round Heatsinks,4b312b4b-3220-4436-9172-6162696e6572,rev?*%
%TF.SameCoordinates,Original*%
%TF.FileFunction,Copper,L2,Bot*%
%TF.FilePolarity,Positive*%
%FSLAX46Y46*%
G04 Gerber Fmt 4.6, Leading zero omitted, Abs format (unit mm)*
G04 Created by KiCad (PCBNEW (6.0.8)) date 2023-01-17 07:54:29*
%MOMM*%
%LPD*%
G01*
G04 APERTURE LIST*
G04 Aperture macros list*
%AMRoundRect*
0 Rectangle with rounded corners*
0 $1 Rounding radius*
0 $2 $3 $4 $5 $6 $7 $8 $9 X,Y pos of 4 corners*
0 Add a 4 corners polygon primitive as box body*
4,1,4,$2,$3,$4,$5,$6,$7,$8,$9,$2,$3,0*
0 Add four circle primitives for the rounded corners*
1,1,$1+$1,$2,$3*
1,1,$1+$1,$4,$5*
1,1,$1+$1,$6,$7*
1,1,$1+$1,$8,$9*
0 Add four rect primitives between the rounded corners*
20,1,$1+$1,$2,$3,$4,$5,0*
20,1,$1+$1,$4,$5,$6,$7,0*
20,1,$1+$1,$6,$7,$8,$9,0*
20,1,$1+$1,$8,$9,$2,$3,0*%
%AMHorizOval*
0 Thick line with rounded ends*
0 $1 width*
0 $2 $3 position (X,Y) of the first rounded end (center of the circle)*
0 $4 $5 position (X,Y) of the second rounded end (center of the circle)*
0 Add line between two ends*
20,1,$1,$2,$3,$4,$5,0*
0 Add two circle primitives to create the rounded ends*
1,1,$1,$2,$3*
1,1,$1,$4,$5*%
G04 Aperture macros list end*
%TA.AperFunction,ComponentPad*%
%ADD10RoundRect,0.250000X-0.954594X-0.106066X-0.106066X-0.954594X0.954594X0.106066X0.106066X0.954594X0*%
%TD*%
%TA.AperFunction,ComponentPad*%
%ADD11HorizOval,1.700000X-0.106066X-0.106066X0.106066X0.106066X0*%
%TD*%
%TA.AperFunction,ComponentPad*%
%ADD12RoundRect,0.250000X0.088388X-0.936916X0.936916X-0.088388X-0.088388X0.936916X-0.936916X0.088388X0*%
%TD*%
%TA.AperFunction,ComponentPad*%
%ADD13HorizOval,1.700000X-0.088388X0.088388X0.088388X-0.088388X0*%
%TD*%
%TA.AperFunction,ComponentPad*%
%ADD14RoundRect,0.250001X0.499999X0.499999X-0.499999X0.499999X-0.499999X-0.499999X0.499999X-0.499999X0*%
%TD*%
%TA.AperFunction,ComponentPad*%
%ADD15C,1.500000*%
%TD*%
%TA.AperFunction,ComponentPad*%
%ADD16RoundRect,0.297500X-0.552500X-0.577500X0.552500X-0.577500X0.552500X0.577500X-0.552500X0.577500X0*%
%TD*%
%TA.AperFunction,ComponentPad*%
%ADD17C,7.000000*%
%TD*%
%TA.AperFunction,ComponentPad*%
%ADD18C,9.000000*%
%TD*%
%TA.AperFunction,ComponentPad*%
%ADD19RoundRect,0.250000X-0.936916X-0.088388X-0.088388X-0.936916X0.936916X0.088388X0.088388X0.936916X0*%
%TD*%
%TA.AperFunction,ComponentPad*%
%ADD20HorizOval,1.700000X-0.088388X-0.088388X0.088388X0.088388X0*%
%TD*%
%TA.AperFunction,ComponentPad*%
%ADD21RoundRect,0.250000X0.600000X0.750000X-0.600000X0.750000X-0.600000X-0.750000X0.600000X-0.750000X0*%
%TD*%
%TA.AperFunction,ComponentPad*%
%ADD22O,1.700000X2.000000*%
%TD*%
%TA.AperFunction,ComponentPad*%
%ADD23RoundRect,0.250000X0.106066X-0.954594X0.954594X-0.106066X-0.106066X0.954594X-0.954594X0.106066X0*%
%TD*%
%TA.AperFunction,ComponentPad*%
%ADD24HorizOval,1.700000X-0.106066X0.106066X0.106066X-0.106066X0*%
%TD*%
%TA.AperFunction,ComponentPad*%
%ADD25RoundRect,0.250001X0.000000X0.707105X-0.707105X0.000000X0.000000X-0.707105X0.707105X0.000000X0*%
%TD*%
%TA.AperFunction,ViaPad*%
%ADD26C,1.000000*%
%TD*%
%TA.AperFunction,Conductor*%
%ADD27C,0.500000*%
%TD*%
%TA.AperFunction,Conductor*%
%ADD28C,1.000000*%
%TD*%
%TA.AperFunction,Conductor*%
%ADD29C,0.250000*%
%TD*%
%TA.AperFunction,Conductor*%
%ADD30C,3.000000*%
%TD*%
%TA.AperFunction,Conductor*%
%ADD31C,0.200000*%
%TD*%
G04 APERTURE END LIST*
D10*
%TO.P,P_CF2,1,Pin_1*%
%TO.N,AltVolt*%
X38735000Y-104775000D03*
D11*
%TO.P,P_CF2,2,Pin_2*%
%TO.N,PcFanGnd*%
X40502767Y-106542767D03*
%TD*%
D12*
%TO.P,EStepper1,1,Pin_1*%
%TO.N,Stepper2B*%
X78740000Y-101854000D03*
D13*
%TO.P,EStepper1,2,Pin_2*%
%TO.N,Stepper2A*%
X80507767Y-100086233D03*
%TO.P,EStepper1,3,Pin_3*%
%TO.N,Stepper1B*%
X82275534Y-98318466D03*
%TO.P,EStepper1,4,Pin_4*%
%TO.N,Stepper1A*%
X84043301Y-96550699D03*
%TD*%
D14*
%TO.P,Carabiner_Input1,1,Pin_1*%
%TO.N,ThChamber*%
X72730000Y-82500000D03*
D15*
%TO.P,Carabiner_Input1,2,Pin_2*%
%TO.N,PcFanGnd*%
X69730000Y-82500000D03*
%TO.P,Carabiner_Input1,3,Pin_3*%
%TO.N,HotendFanGnd*%
X66730000Y-82500000D03*
%TO.P,Carabiner_Input1,4,Pin_4*%
%TO.N,ThCommonGnd*%
X63730000Y-82500000D03*
%TO.P,Carabiner_Input1,5,Pin_5*%
%TO.N,Stepper1A*%
X60730000Y-82500000D03*
%TO.P,Carabiner_Input1,6,Pin_6*%
%TO.N,Stepper1B*%
X57730000Y-82500000D03*
%TO.P,Carabiner_Input1,7,Pin_7*%
%TO.N,A1*%
X54730000Y-82500000D03*
%TO.P,Carabiner_Input1,8,Pin_8*%
%TO.N,A4*%
X51730000Y-82500000D03*
%TO.P,Carabiner_Input1,9,Pin_9*%
%TO.N,HotendVoltage*%
X72730000Y-79500000D03*
%TO.P,Carabiner_Input1,10,Pin_10*%
%TO.N,HotendNeg*%
X69730000Y-79500000D03*
%TO.P,Carabiner_Input1,11,Pin_11*%
%TO.N,AltVolt*%
X66730000Y-79500000D03*
%TO.P,Carabiner_Input1,12,Pin_12*%
%TO.N,ThHotend*%
X63730000Y-79500000D03*
%TO.P,Carabiner_Input1,13,Pin_13*%
%TO.N,Stepper2A*%
X60730000Y-79500000D03*
%TO.P,Carabiner_Input1,14,Pin_14*%
%TO.N,Stepper2B*%
X57730000Y-79500000D03*
%TO.P,Carabiner_Input1,15,Pin_15*%
%TO.N,A2-*%
X54730000Y-79500000D03*
%TO.P,Carabiner_Input1,16,Pin_16*%
%TO.N,A2+*%
X51730000Y-79500000D03*
%TD*%
D16*
%TO.P,ChamberTh1,1,Pin_1*%
%TO.N,ThChamber*%
X90678000Y-49403000D03*
%TO.P,ChamberTh1,2,Pin_2*%
%TO.N,ThCommonGnd*%
X93218000Y-49403000D03*
%TD*%
D17*
%TO.P,H5,1*%
%TO.N,N/C*%
X37287074Y-62414644D03*
%TD*%
D18*
%TO.P,H1,1*%
%TO.N,N/C*%
X52106522Y-110180268D03*
%TD*%
D17*
%TO.P,H4,1*%
%TO.N,N/C*%
X86925970Y-62414644D03*
%TD*%
%TO.P,H3,1*%
%TO.N,N/C*%
X83856522Y-35180268D03*
%TD*%
%TO.P,H6,1*%
%TO.N,N/C*%
X40356522Y-35180268D03*
%TD*%
D19*
%TO.P,ZBeacon1,1,Pin_1*%
%TO.N,A4*%
X40391581Y-96291119D03*
D20*
%TO.P,ZBeacon1,2,Pin_2*%
%TO.N,A2+*%
X42159348Y-98058886D03*
%TO.P,ZBeacon1,3,Pin_3*%
%TO.N,A2-*%
X43927115Y-99826653D03*
%TO.P,ZBeacon1,4,Pin_4*%
%TO.N,A1*%
X45694882Y-101594420D03*
%TD*%
D18*
%TO.P,H2,1*%
%TO.N,N/C*%
X72106522Y-110180268D03*
%TD*%
D21*
%TO.P,HE_CF1,1,Pin_1*%
%TO.N,AltVolt*%
X83018000Y-54229000D03*
D22*
%TO.P,HE_CF1,2,Pin_2*%
%TO.N,HotendFanGnd*%
X80518000Y-54229000D03*
%TD*%
D23*
%TO.P,P_CF1,1,Pin_1*%
%TO.N,AltVolt*%
X83834886Y-106557653D03*
D24*
%TO.P,P_CF1,2,Pin_2*%
%TO.N,PcFanGnd*%
X85602653Y-104789886D03*
%TD*%
D25*
%TO.P,Th+He1,1,Pin_1*%
%TO.N,HotendNeg*%
X33488551Y-41781231D03*
D15*
%TO.P,Th+He1,2,Pin_2*%
%TO.N,HotendVoltage*%
X31367231Y-43902551D03*
%TO.P,Th+He1,3,Pin_3*%
%TO.N,ThHotend*%
X35609871Y-43902551D03*
%TO.P,Th+He1,4,Pin_4*%
%TO.N,ThCommonGnd*%
X33488551Y-46023872D03*
%TD*%
D26*
%TO.N,AltVolt*%
X68300000Y-85400000D03*
%TD*%
D27*
%TO.N,AltVolt*%
X68383000Y-81153000D02*
X74168000Y-81153000D01*
X81545000Y-73776000D02*
X81545000Y-55702000D01*
X66730000Y-79500000D02*
X68383000Y-81153000D01*
X74168000Y-81153000D02*
X81545000Y-73776000D01*
D28*
X68300000Y-85400000D02*
X68300000Y-83800000D01*
D27*
X81545000Y-55702000D02*
X83018000Y-54229000D01*
D28*
%TO.N,PcFanGnd*%
X82200000Y-104300000D02*
X85112767Y-104300000D01*
X87246269Y-96046269D02*
X75800000Y-84600000D01*
X81710114Y-104789886D02*
X82200000Y-104300000D01*
X42255648Y-104789886D02*
X40502767Y-106542767D01*
X87246269Y-103146269D02*
X87246269Y-96046269D01*
X85602653Y-104789886D02*
X87246269Y-103146269D01*
X42255648Y-104789886D02*
X81710114Y-104789886D01*
X85112767Y-104300000D02*
X85602653Y-104789886D01*
X75800000Y-84600000D02*
X71830000Y-84600000D01*
X71830000Y-84600000D02*
X69730000Y-82500000D01*
D27*
%TO.N,ThCommonGnd*%
X62280800Y-81050800D02*
X62280800Y-74816121D01*
X63730000Y-82500000D02*
X62280800Y-81050800D01*
X62280800Y-74816121D02*
X33488551Y-46023872D01*
%TO.N,Stepper1A*%
X60730000Y-82500000D02*
X68830000Y-90600000D01*
X78092602Y-90600000D02*
X84043301Y-96550699D01*
X68830000Y-90600000D02*
X78092602Y-90600000D01*
%TO.N,Stepper1B*%
X57730000Y-82500000D02*
X66730000Y-91500000D01*
X82189466Y-98318466D02*
X82275534Y-98318466D01*
X66730000Y-91500000D02*
X75371000Y-91500000D01*
X75371000Y-91500000D02*
X82189466Y-98318466D01*
D29*
%TO.N,A1*%
X54730000Y-82500000D02*
X54730000Y-82889240D01*
D30*
%TO.N,HotendNeg*%
X39345873Y-40400000D02*
X45400000Y-46454127D01*
X69730000Y-70695200D02*
X69730000Y-78803000D01*
X34869782Y-40400000D02*
X39345873Y-40400000D01*
X33488551Y-41781231D02*
X34869782Y-40400000D01*
X45488927Y-46454127D02*
X69730000Y-70695200D01*
X45400000Y-46454127D02*
X45488927Y-46454127D01*
D27*
%TO.N,ThHotend*%
X60185720Y-68478400D02*
X60198000Y-68478400D01*
X63730000Y-72010400D02*
X63730000Y-79500000D01*
X35609871Y-43902551D02*
X60185720Y-68478400D01*
X60198000Y-68478400D02*
X63730000Y-72010400D01*
D31*
%TO.N,A2-*%
X52019999Y-90284199D02*
X44616544Y-97687654D01*
X54730000Y-79500000D02*
X53455001Y-80774999D01*
X43927115Y-99826653D02*
X44616544Y-99137224D01*
X44616544Y-97687654D02*
X44616544Y-99137224D01*
X53455001Y-80774999D02*
X53455001Y-84618702D01*
X52019999Y-86053704D02*
X52019999Y-90284199D01*
X53455001Y-84618702D02*
X52019999Y-86053704D01*
%TO.N,A2+*%
X44298347Y-97369457D02*
X42848777Y-97369457D01*
X51730000Y-79500000D02*
X53004999Y-80774999D01*
X53004999Y-80774999D02*
X53004999Y-84432335D01*
X51570018Y-90097786D02*
X44298347Y-97369457D01*
X42848777Y-97369457D02*
X42159348Y-98058886D01*
X53004999Y-84432335D02*
X51570018Y-85867316D01*
X51570018Y-85867316D02*
X51570018Y-90097786D01*
%TD*%
%TA.AperFunction,Conductor*%
%TO.N,AltVolt*%
G36*
X66766013Y-78437722D02*
G01*
X66771435Y-78440820D01*
X67366877Y-78781073D01*
X67417061Y-78834123D01*
X67700000Y-79400000D01*
X67712514Y-79418203D01*
X67717533Y-79425503D01*
X67732476Y-79454825D01*
X67797752Y-79639158D01*
X67929109Y-79893658D01*
X67931570Y-79897159D01*
X67931572Y-79897163D01*
X68091327Y-80124471D01*
X68091332Y-80124477D01*
X68093791Y-80127976D01*
X68288749Y-80337776D01*
X68402881Y-80431193D01*
X68426899Y-80457308D01*
X68777829Y-80967751D01*
X68800000Y-81039134D01*
X68800000Y-82271181D01*
X68797342Y-82296475D01*
X68795772Y-82301424D01*
X68774994Y-82486665D01*
X68790592Y-82672414D01*
X68792292Y-82678342D01*
X68795119Y-82688203D01*
X68800000Y-82722932D01*
X68800000Y-83975735D01*
X68790988Y-84022530D01*
X68661287Y-84346783D01*
X68617416Y-84402603D01*
X68550331Y-84425844D01*
X68481331Y-84409126D01*
X68468339Y-84400517D01*
X67844886Y-83929434D01*
X67802594Y-83872408D01*
X67795322Y-83839851D01*
X67683577Y-82558414D01*
X67684056Y-82533672D01*
X67684041Y-82533671D01*
X67684062Y-82533368D01*
X67684095Y-82531674D01*
X67684287Y-82530157D01*
X67684288Y-82530143D01*
X67684727Y-82526668D01*
X67685099Y-82500000D01*
X67666909Y-82314487D01*
X67664203Y-82305525D01*
X67659304Y-82280062D01*
X67601574Y-81618048D01*
X67601574Y-81618047D01*
X67600000Y-81600000D01*
X67591873Y-81593228D01*
X67591873Y-81593227D01*
X67002278Y-81101898D01*
X66997800Y-81097983D01*
X66572873Y-80708467D01*
X65829250Y-80026813D01*
X65791392Y-79961266D01*
X65666667Y-79400000D01*
X65619159Y-79186216D01*
X65623908Y-79115379D01*
X65666200Y-79058353D01*
X65674502Y-79052590D01*
X66635855Y-78440820D01*
X66704063Y-78421122D01*
X66766013Y-78437722D01*
G37*
%TD.AperFunction*%
%TD*%
%TA.AperFunction,Conductor*%
%TO.N,HotendNeg*%
G36*
X70842121Y-76920002D02*
G01*
X70888614Y-76973658D01*
X70900000Y-77026000D01*
X70900000Y-79974000D01*
X70879998Y-80042121D01*
X70826342Y-80088614D01*
X70774000Y-80100000D01*
X68975178Y-80100000D01*
X68907057Y-80079998D01*
X68876650Y-80052537D01*
X68873972Y-80049177D01*
X68873955Y-80049157D01*
X68872572Y-80047422D01*
X68867697Y-80042121D01*
X68850061Y-80022945D01*
X68850053Y-80022937D01*
X68848554Y-80021307D01*
X68846947Y-80019790D01*
X68846939Y-80019782D01*
X68788008Y-79964157D01*
X68786396Y-79962635D01*
X68710848Y-79900799D01*
X68698356Y-79889068D01*
X68633699Y-79819489D01*
X68601981Y-79755973D01*
X68600000Y-79733719D01*
X68600000Y-77026000D01*
X68620002Y-76957879D01*
X68673658Y-76911386D01*
X68726000Y-76900000D01*
X70774000Y-76900000D01*
X70842121Y-76920002D01*
G37*
%TD.AperFunction*%
%TD*%
M02*
