%TF.GenerationSoftware,KiCad,Pcbnew,(6.0.8)*%
%TF.CreationDate,2023-01-17T07:54:29-05:00*%
%TF.ProjectId,K1+K2 Carabiner for Round Heatsinks,4b312b4b-3220-4436-9172-6162696e6572,rev?*%
%TF.SameCoordinates,Original*%
%TF.FileFunction,Profile,NP*%
%FSLAX46Y46*%
G04 Gerber Fmt 4.6, Leading zero omitted, Abs format (unit mm)*
G04 Created by KiCad (PCBNEW (6.0.8)) date 2023-01-17 07:54:29*
%MOMM*%
%LPD*%
G01*
G04 APERTURE LIST*
%TA.AperFunction,Profile*%
%ADD10C,0.250000*%
%TD*%
G04 APERTURE END LIST*
D10*
X25706523Y-57625089D02*
G75*
G03*
X28491708Y-64549428I9999977J-11D01*
G01*
X91284521Y-105573664D02*
G75*
G03*
X91284523Y-98502598I-3535541J3535534D01*
G01*
X42070668Y-114715790D02*
G75*
G03*
X45606190Y-116180268I3535532J3535490D01*
G01*
X86070736Y-32266054D02*
X95577590Y-41772909D01*
X95721339Y-64549430D02*
G75*
G03*
X98506522Y-57625089I-7214929J6924380D01*
G01*
X48125932Y-36417110D02*
G75*
G03*
X43132856Y-31680268I-4993072J-263160D01*
G01*
X37634954Y-74076232D02*
X28491708Y-64549428D01*
X82840501Y-87987508D02*
X82840501Y-81192672D01*
X91284523Y-98502598D02*
X84304967Y-91523042D01*
X98506532Y-48843976D02*
G75*
G03*
X95577590Y-41772909I-10000032J-24D01*
G01*
X84875361Y-75778963D02*
G75*
G03*
X82840501Y-81192672I4949559J-4949677D01*
G01*
X43132856Y-31680268D02*
X39556522Y-31680268D01*
X41372526Y-81192671D02*
G75*
G03*
X39337684Y-75778962I-6984626J463971D01*
G01*
X69606932Y-115634819D02*
G75*
G03*
X72106522Y-116180268I2499568J5454519D01*
G01*
X78606854Y-116180274D02*
G75*
G03*
X82142388Y-114715802I46J4999874D01*
G01*
X39556522Y-31680292D02*
G75*
G03*
X38142308Y-32266054I-22J-2000008D01*
G01*
X81080188Y-31680268D02*
G75*
G03*
X76087118Y-36417110I-8J-4999992D01*
G01*
X42070656Y-114715802D02*
X32928521Y-105573666D01*
X98506522Y-48843976D02*
X98506522Y-57625089D01*
X32928521Y-98502598D02*
X39908077Y-91523042D01*
X69606936Y-115634812D02*
G75*
G03*
X67523946Y-115180268I-2083036J-4545688D01*
G01*
X52106522Y-116180268D02*
X45606190Y-116180268D01*
X86070731Y-32266059D02*
G75*
G03*
X84656522Y-31680268I-1414231J-1414241D01*
G01*
X39908082Y-91523047D02*
G75*
G03*
X41372543Y-87987508I-3535582J3535547D01*
G01*
X84656522Y-31680268D02*
X81080188Y-31680268D01*
X41372543Y-87987508D02*
X41372543Y-81192672D01*
X86656522Y-73994510D02*
X86656522Y-73997800D01*
X48125926Y-36417110D02*
G75*
G03*
X76087118Y-36417110I13980596J736842D01*
G01*
X82840495Y-87987508D02*
G75*
G03*
X84304967Y-91523042I5000005J8D01*
G01*
X86656522Y-73994510D02*
X95721336Y-64549428D01*
X39337684Y-75778962D02*
X37634954Y-74076232D01*
X25706522Y-48843976D02*
X25706522Y-57625089D01*
X38142308Y-32266054D02*
X28635454Y-41772909D01*
X32928519Y-98502596D02*
G75*
G03*
X32928521Y-105573666I3535541J-3535534D01*
G01*
X56689098Y-115180261D02*
G75*
G03*
X54606109Y-115634813I2J-4999939D01*
G01*
X72106522Y-116180268D02*
X78606854Y-116180268D01*
X84875360Y-75778962D02*
X86656522Y-73997800D01*
X52106522Y-116180280D02*
G75*
G03*
X54606109Y-115634813I-22J5999980D01*
G01*
X67523946Y-115180268D02*
X56689098Y-115180268D01*
X82142388Y-114715802D02*
X91284523Y-105573666D01*
X28635456Y-41772911D02*
G75*
G03*
X25706522Y-48843976I7071064J-7071069D01*
G01*
M02*
