%TF.GenerationSoftware,KiCad,Pcbnew,(6.0.8)*%
%TF.CreationDate,2023-01-17T07:54:29-05:00*%
%TF.ProjectId,K1+K2 Carabiner for Round Heatsinks,4b312b4b-3220-4436-9172-6162696e6572,rev?*%
%TF.SameCoordinates,Original*%
%TF.FileFunction,Legend,Bot*%
%TF.FilePolarity,Positive*%
%FSLAX46Y46*%
G04 Gerber Fmt 4.6, Leading zero omitted, Abs format (unit mm)*
G04 Created by KiCad (PCBNEW (6.0.8)) date 2023-01-17 07:54:29*
%MOMM*%
%LPD*%
G01*
G04 APERTURE LIST*
%ADD10C,0.300000*%
%ADD11C,0.200000*%
%ADD12C,0.150000*%
%ADD13C,0.010000*%
%ADD14C,0.120000*%
G04 APERTURE END LIST*
D10*
X84692517Y-108703959D02*
X85500639Y-107895837D01*
X84692517Y-107895837D02*
X85500639Y-108703959D01*
X86813837Y-106582639D02*
X87621959Y-105774517D01*
X36711040Y-106028517D02*
X37519162Y-106836639D01*
X37519162Y-106028517D02*
X36711040Y-106836639D01*
X38832360Y-108149837D02*
X39640482Y-108957959D01*
X83859428Y-43922142D02*
X82716571Y-43922142D01*
X83288000Y-44493571D02*
X83288000Y-43350714D01*
X80859428Y-43922142D02*
X79716571Y-43922142D01*
D11*
X44868584Y-103582392D02*
X44599210Y-103313018D01*
X44760834Y-103797891D02*
X45137958Y-103043644D01*
X44383711Y-103420767D01*
X43898837Y-102935894D02*
X44222086Y-103259143D01*
X44060462Y-103097518D02*
X44626147Y-102531833D01*
X44599210Y-102666520D01*
X44599210Y-102774270D01*
X44626147Y-102855082D01*
X42982966Y-101696773D02*
X42713592Y-101427399D01*
X42875216Y-101912273D02*
X43252340Y-101158025D01*
X42498092Y-101535149D01*
X42848279Y-100861714D02*
X42848279Y-100807839D01*
X42821341Y-100727027D01*
X42686654Y-100592340D01*
X42605842Y-100565403D01*
X42551967Y-100565403D01*
X42471155Y-100592340D01*
X42417280Y-100646215D01*
X42363405Y-100753964D01*
X42363405Y-101400462D01*
X42013219Y-101050276D01*
X41097348Y-99811155D02*
X40827974Y-99541781D01*
X40989598Y-100026655D02*
X41366722Y-99272407D01*
X40612474Y-99649531D01*
X41043473Y-98949159D02*
X40693287Y-98598972D01*
X40666349Y-99003033D01*
X40585537Y-98922221D01*
X40504725Y-98895284D01*
X40450850Y-98895284D01*
X40370038Y-98922221D01*
X40235351Y-99056908D01*
X40208413Y-99137720D01*
X40208413Y-99191595D01*
X40235351Y-99272407D01*
X40396975Y-99434032D01*
X40477787Y-99460969D01*
X40531662Y-99460969D01*
X39211729Y-97925537D02*
X38942355Y-97656163D01*
X39103980Y-98141037D02*
X39481104Y-97386789D01*
X38726856Y-97763913D01*
X38672981Y-96955791D02*
X38295858Y-97332914D01*
X39023168Y-96874979D02*
X38753794Y-97413727D01*
X38403607Y-97063540D01*
X43957830Y-103738898D02*
X44038642Y-103765836D01*
X44119454Y-103846648D01*
X44173329Y-103954398D01*
X44173329Y-104062147D01*
X44146392Y-104142959D01*
X44065579Y-104277646D01*
X43984767Y-104358459D01*
X43850080Y-104439271D01*
X43769268Y-104466208D01*
X43661518Y-104466208D01*
X43553769Y-104412333D01*
X43499894Y-104358459D01*
X43446019Y-104250709D01*
X43446019Y-104196834D01*
X43634581Y-104008272D01*
X43742331Y-104116022D01*
X43149708Y-104008272D02*
X43715393Y-103442587D01*
X42826459Y-103685024D01*
X43392144Y-103119338D01*
X42557085Y-103415649D02*
X43122770Y-102849964D01*
X42988083Y-102715277D01*
X42880334Y-102661402D01*
X42772584Y-102661402D01*
X42691772Y-102688340D01*
X42557085Y-102769152D01*
X42476273Y-102849964D01*
X42395460Y-102984651D01*
X42368523Y-103065463D01*
X42368523Y-103173213D01*
X42422398Y-103280962D01*
X42557085Y-103415649D01*
X41560401Y-102418966D02*
X42126086Y-101853280D01*
X41991399Y-101718593D01*
X41883650Y-101664718D01*
X41775900Y-101664718D01*
X41695088Y-101691656D01*
X41560401Y-101772468D01*
X41479589Y-101853280D01*
X41398777Y-101987967D01*
X41371839Y-102068779D01*
X41371839Y-102176529D01*
X41425714Y-102284279D01*
X41560401Y-102418966D01*
X41210215Y-101637781D02*
X40779216Y-101206783D01*
X39863345Y-100721909D02*
X40429030Y-100156224D01*
X40294343Y-100021537D01*
X40186594Y-99967662D01*
X40078844Y-99967662D01*
X39998032Y-99994600D01*
X39863345Y-100075412D01*
X39782533Y-100156224D01*
X39701720Y-100290911D01*
X39674783Y-100371723D01*
X39674783Y-100479473D01*
X39728658Y-100587222D01*
X39863345Y-100721909D01*
X39513159Y-99940725D02*
X39082160Y-99509726D01*
X39082160Y-99940725D02*
X39513159Y-99509726D01*
X38462600Y-98189794D02*
X38731974Y-98459168D01*
X38489537Y-98755479D01*
X38489537Y-98701604D01*
X38462600Y-98620792D01*
X38327913Y-98486105D01*
X38247101Y-98459168D01*
X38193226Y-98459168D01*
X38112414Y-98486105D01*
X37977727Y-98620792D01*
X37950789Y-98701604D01*
X37950789Y-98755479D01*
X37977727Y-98836291D01*
X38112414Y-98970978D01*
X38193226Y-98997916D01*
X38247101Y-98997916D01*
X38274038Y-98001232D02*
X37519791Y-98378355D01*
X37896914Y-97624108D01*
D12*
%TO.C,Th+He1*%
X37904572Y-45013978D02*
X37500511Y-45418039D01*
X38409648Y-45923115D02*
X37702541Y-45216008D01*
X37971915Y-46360848D02*
X37264809Y-45653741D01*
X37668870Y-46663894D02*
X37298480Y-46293504D01*
X37264809Y-46192489D01*
X37298480Y-46091474D01*
X37399496Y-45990459D01*
X37500511Y-45956787D01*
X37567854Y-45956787D01*
X37062778Y-46731237D02*
X36524030Y-47269985D01*
X37062778Y-47269985D02*
X36524030Y-46731237D01*
X36456687Y-47876077D02*
X35749580Y-47168970D01*
X36086297Y-47505688D02*
X35682236Y-47909749D01*
X36052625Y-48280138D02*
X35345519Y-47573031D01*
X35412862Y-48852558D02*
X35513877Y-48818886D01*
X35648564Y-48684199D01*
X35682236Y-48583184D01*
X35648564Y-48482168D01*
X35379190Y-48212794D01*
X35278175Y-48179123D01*
X35177160Y-48212794D01*
X35042473Y-48347481D01*
X35008801Y-48448497D01*
X35042473Y-48549512D01*
X35109816Y-48616855D01*
X35513877Y-48347481D01*
X34739427Y-49593336D02*
X35143488Y-49189275D01*
X34941458Y-49391306D02*
X34234351Y-48684199D01*
X34402710Y-48717871D01*
X34537397Y-48717871D01*
X34638412Y-48684199D01*
%TO.C,LOGO1*%
G36*
X92984787Y-43851889D02*
G01*
X92897481Y-43914015D01*
X92854602Y-43928457D01*
X92794667Y-43940105D01*
X92776338Y-43938094D01*
X92715372Y-43915212D01*
X92647234Y-43876646D01*
X92591786Y-43834607D01*
X92568889Y-43801303D01*
X92548410Y-43792302D01*
X92473825Y-43783849D01*
X92346559Y-43777697D01*
X92168617Y-43773939D01*
X91942005Y-43772666D01*
X91315121Y-43772666D01*
X91253747Y-43849636D01*
X91176681Y-43909930D01*
X91076064Y-43932161D01*
X90973466Y-43911513D01*
X90886672Y-43848062D01*
X90840289Y-43776673D01*
X90818200Y-43677905D01*
X90818950Y-43674317D01*
X90995530Y-43674317D01*
X91016965Y-43730692D01*
X91040414Y-43754556D01*
X91086296Y-43769404D01*
X91119350Y-43730333D01*
X91126836Y-43682399D01*
X91126785Y-43682260D01*
X92724326Y-43682260D01*
X92724416Y-43682399D01*
X92753375Y-43727343D01*
X92791455Y-43762816D01*
X92817786Y-43765754D01*
X92850813Y-43730692D01*
X92871925Y-43675743D01*
X92857135Y-43625350D01*
X92813119Y-43603333D01*
X92789209Y-43608494D01*
X92740704Y-43642676D01*
X92724326Y-43682260D01*
X91126785Y-43682260D01*
X91106228Y-43626728D01*
X91059000Y-43603333D01*
X91012498Y-43624293D01*
X90995530Y-43674317D01*
X90818950Y-43674317D01*
X90837283Y-43586554D01*
X90888868Y-43510552D01*
X90964281Y-43457830D01*
X91054853Y-43436321D01*
X91151912Y-43453956D01*
X91246787Y-43518666D01*
X91331453Y-43603333D01*
X92536325Y-43603333D01*
X92620992Y-43518666D01*
X92667961Y-43478984D01*
X92772196Y-43434927D01*
X92876985Y-43444656D01*
X92974263Y-43508404D01*
X93011304Y-43555938D01*
X93044726Y-43656861D01*
X93042937Y-43675743D01*
X93034878Y-43760841D01*
X92984787Y-43851889D01*
G37*
D13*
X92984787Y-43851889D02*
X92897481Y-43914015D01*
X92854602Y-43928457D01*
X92794667Y-43940105D01*
X92776338Y-43938094D01*
X92715372Y-43915212D01*
X92647234Y-43876646D01*
X92591786Y-43834607D01*
X92568889Y-43801303D01*
X92548410Y-43792302D01*
X92473825Y-43783849D01*
X92346559Y-43777697D01*
X92168617Y-43773939D01*
X91942005Y-43772666D01*
X91315121Y-43772666D01*
X91253747Y-43849636D01*
X91176681Y-43909930D01*
X91076064Y-43932161D01*
X90973466Y-43911513D01*
X90886672Y-43848062D01*
X90840289Y-43776673D01*
X90818200Y-43677905D01*
X90818950Y-43674317D01*
X90995530Y-43674317D01*
X91016965Y-43730692D01*
X91040414Y-43754556D01*
X91086296Y-43769404D01*
X91119350Y-43730333D01*
X91126836Y-43682399D01*
X91126785Y-43682260D01*
X92724326Y-43682260D01*
X92724416Y-43682399D01*
X92753375Y-43727343D01*
X92791455Y-43762816D01*
X92817786Y-43765754D01*
X92850813Y-43730692D01*
X92871925Y-43675743D01*
X92857135Y-43625350D01*
X92813119Y-43603333D01*
X92789209Y-43608494D01*
X92740704Y-43642676D01*
X92724326Y-43682260D01*
X91126785Y-43682260D01*
X91106228Y-43626728D01*
X91059000Y-43603333D01*
X91012498Y-43624293D01*
X90995530Y-43674317D01*
X90818950Y-43674317D01*
X90837283Y-43586554D01*
X90888868Y-43510552D01*
X90964281Y-43457830D01*
X91054853Y-43436321D01*
X91151912Y-43453956D01*
X91246787Y-43518666D01*
X91331453Y-43603333D01*
X92536325Y-43603333D01*
X92620992Y-43518666D01*
X92667961Y-43478984D01*
X92772196Y-43434927D01*
X92876985Y-43444656D01*
X92974263Y-43508404D01*
X93011304Y-43555938D01*
X93044726Y-43656861D01*
X93042937Y-43675743D01*
X93034878Y-43760841D01*
X92984787Y-43851889D01*
G36*
X94192742Y-44511512D02*
G01*
X94302120Y-44520555D01*
X93753004Y-45063282D01*
X93203889Y-45606009D01*
X92836317Y-45607111D01*
X92399793Y-46044318D01*
X91963268Y-46481525D01*
X91650030Y-46171555D01*
X91283719Y-46171555D01*
X91002556Y-45889333D01*
X90966635Y-45853527D01*
X90866672Y-45756604D01*
X90781980Y-45678389D01*
X90720584Y-45626140D01*
X90690505Y-45607111D01*
X90687659Y-45607364D01*
X90646305Y-45630033D01*
X90592824Y-45678208D01*
X90585574Y-45685758D01*
X90536562Y-45728383D01*
X90505537Y-45741708D01*
X90499954Y-45737536D01*
X90460300Y-45701506D01*
X90387687Y-45632691D01*
X90287180Y-45535979D01*
X90163843Y-45416257D01*
X90022740Y-45278413D01*
X89868935Y-45127333D01*
X89252827Y-44520555D01*
X89363422Y-44511511D01*
X89388030Y-44509907D01*
X89420249Y-44511640D01*
X89453765Y-44522135D01*
X89494088Y-44545847D01*
X89546729Y-44587232D01*
X89617202Y-44650744D01*
X89711016Y-44740839D01*
X89833683Y-44861972D01*
X89990715Y-45018599D01*
X90507414Y-45534731D01*
X90601217Y-45443813D01*
X90695021Y-45352895D01*
X91015342Y-45677558D01*
X91335662Y-46002222D01*
X91523066Y-46002222D01*
X91567678Y-46002343D01*
X91653580Y-46006575D01*
X91712609Y-46023393D01*
X91766135Y-46061511D01*
X91835526Y-46129644D01*
X91960582Y-46257067D01*
X92370569Y-45849623D01*
X92780556Y-45442180D01*
X92963134Y-45440541D01*
X93145712Y-45438903D01*
X93614538Y-44970686D01*
X93651439Y-44933840D01*
X93792107Y-44793864D01*
X93900148Y-44688143D01*
X93981447Y-44612005D01*
X94041887Y-44560778D01*
X94087352Y-44529787D01*
X94123727Y-44514361D01*
X94156895Y-44509827D01*
X94192742Y-44511512D01*
G37*
X94192742Y-44511512D02*
X94302120Y-44520555D01*
X93753004Y-45063282D01*
X93203889Y-45606009D01*
X92836317Y-45607111D01*
X92399793Y-46044318D01*
X91963268Y-46481525D01*
X91650030Y-46171555D01*
X91283719Y-46171555D01*
X91002556Y-45889333D01*
X90966635Y-45853527D01*
X90866672Y-45756604D01*
X90781980Y-45678389D01*
X90720584Y-45626140D01*
X90690505Y-45607111D01*
X90687659Y-45607364D01*
X90646305Y-45630033D01*
X90592824Y-45678208D01*
X90585574Y-45685758D01*
X90536562Y-45728383D01*
X90505537Y-45741708D01*
X90499954Y-45737536D01*
X90460300Y-45701506D01*
X90387687Y-45632691D01*
X90287180Y-45535979D01*
X90163843Y-45416257D01*
X90022740Y-45278413D01*
X89868935Y-45127333D01*
X89252827Y-44520555D01*
X89363422Y-44511511D01*
X89388030Y-44509907D01*
X89420249Y-44511640D01*
X89453765Y-44522135D01*
X89494088Y-44545847D01*
X89546729Y-44587232D01*
X89617202Y-44650744D01*
X89711016Y-44740839D01*
X89833683Y-44861972D01*
X89990715Y-45018599D01*
X90507414Y-45534731D01*
X90601217Y-45443813D01*
X90695021Y-45352895D01*
X91015342Y-45677558D01*
X91335662Y-46002222D01*
X91523066Y-46002222D01*
X91567678Y-46002343D01*
X91653580Y-46006575D01*
X91712609Y-46023393D01*
X91766135Y-46061511D01*
X91835526Y-46129644D01*
X91960582Y-46257067D01*
X92370569Y-45849623D01*
X92780556Y-45442180D01*
X92963134Y-45440541D01*
X93145712Y-45438903D01*
X93614538Y-44970686D01*
X93651439Y-44933840D01*
X93792107Y-44793864D01*
X93900148Y-44688143D01*
X93981447Y-44612005D01*
X94041887Y-44560778D01*
X94087352Y-44529787D01*
X94123727Y-44514361D01*
X94156895Y-44509827D01*
X94192742Y-44511512D01*
G36*
X92678775Y-44507580D02*
G01*
X92782286Y-44512659D01*
X92853094Y-44520878D01*
X92879334Y-44531211D01*
X92877368Y-44546270D01*
X92837299Y-44590830D01*
X92749037Y-44616849D01*
X92617128Y-44622739D01*
X92441889Y-44617325D01*
X92154390Y-44900551D01*
X92026632Y-45025455D01*
X91926113Y-45114910D01*
X91843844Y-45167688D01*
X91770011Y-45183368D01*
X91694805Y-45161532D01*
X91608414Y-45101761D01*
X91501026Y-45003636D01*
X91362831Y-44866738D01*
X91294700Y-44798297D01*
X91195584Y-44696710D01*
X91116388Y-44612992D01*
X91063895Y-44554370D01*
X91044889Y-44528071D01*
X91045621Y-44525426D01*
X91077685Y-44511938D01*
X91142551Y-44506444D01*
X91155167Y-44506695D01*
X91199792Y-44513985D01*
X91246241Y-44536336D01*
X91303558Y-44580416D01*
X91380787Y-44652896D01*
X91486970Y-44760444D01*
X91495994Y-44769714D01*
X91591120Y-44865096D01*
X91672693Y-44942873D01*
X91732293Y-44995253D01*
X91761499Y-45014444D01*
X91763442Y-45014053D01*
X91797919Y-44990286D01*
X91862540Y-44935086D01*
X91948821Y-44855967D01*
X92048278Y-44760444D01*
X92307286Y-44506444D01*
X92593310Y-44506444D01*
X92678775Y-44507580D01*
G37*
X92678775Y-44507580D02*
X92782286Y-44512659D01*
X92853094Y-44520878D01*
X92879334Y-44531211D01*
X92877368Y-44546270D01*
X92837299Y-44590830D01*
X92749037Y-44616849D01*
X92617128Y-44622739D01*
X92441889Y-44617325D01*
X92154390Y-44900551D01*
X92026632Y-45025455D01*
X91926113Y-45114910D01*
X91843844Y-45167688D01*
X91770011Y-45183368D01*
X91694805Y-45161532D01*
X91608414Y-45101761D01*
X91501026Y-45003636D01*
X91362831Y-44866738D01*
X91294700Y-44798297D01*
X91195584Y-44696710D01*
X91116388Y-44612992D01*
X91063895Y-44554370D01*
X91044889Y-44528071D01*
X91045621Y-44525426D01*
X91077685Y-44511938D01*
X91142551Y-44506444D01*
X91155167Y-44506695D01*
X91199792Y-44513985D01*
X91246241Y-44536336D01*
X91303558Y-44580416D01*
X91380787Y-44652896D01*
X91486970Y-44760444D01*
X91495994Y-44769714D01*
X91591120Y-44865096D01*
X91672693Y-44942873D01*
X91732293Y-44995253D01*
X91761499Y-45014444D01*
X91763442Y-45014053D01*
X91797919Y-44990286D01*
X91862540Y-44935086D01*
X91948821Y-44855967D01*
X92048278Y-44760444D01*
X92307286Y-44506444D01*
X92593310Y-44506444D01*
X92678775Y-44507580D01*
G36*
X93760494Y-43782540D02*
G01*
X93705031Y-43864864D01*
X93613111Y-43922068D01*
X93565496Y-43936520D01*
X93520820Y-43934803D01*
X93454971Y-43912668D01*
X93367384Y-43861828D01*
X93318709Y-43782515D01*
X93309179Y-43677352D01*
X93477564Y-43677352D01*
X93484347Y-43725160D01*
X93524875Y-43757118D01*
X93583170Y-43745507D01*
X93596735Y-43733977D01*
X93610636Y-43686168D01*
X93589737Y-43638858D01*
X93542169Y-43617444D01*
X93506654Y-43626879D01*
X93477564Y-43677352D01*
X93309179Y-43677352D01*
X93308221Y-43666785D01*
X93309162Y-43632278D01*
X93300711Y-43565343D01*
X93268928Y-43506648D01*
X93203843Y-43433952D01*
X93093656Y-43321111D01*
X92646474Y-43321111D01*
X92499719Y-43321267D01*
X92372582Y-43322604D01*
X92284574Y-43326447D01*
X92226362Y-43334120D01*
X92188609Y-43346946D01*
X92161982Y-43366250D01*
X92137147Y-43393355D01*
X92095726Y-43431076D01*
X91999912Y-43470022D01*
X91897623Y-43465141D01*
X91804801Y-43418822D01*
X91737387Y-43333455D01*
X91711252Y-43239286D01*
X91714465Y-43214989D01*
X91896649Y-43214989D01*
X91904594Y-43241641D01*
X91941301Y-43280517D01*
X91987183Y-43286838D01*
X92021142Y-43253992D01*
X92028353Y-43221981D01*
X92007665Y-43171042D01*
X91944372Y-43151777D01*
X91902219Y-43165261D01*
X91896649Y-43214989D01*
X91714465Y-43214989D01*
X91724399Y-43139864D01*
X91774488Y-43058280D01*
X91851123Y-43001784D01*
X91943906Y-42977625D01*
X92042439Y-42993051D01*
X92136324Y-43055313D01*
X92136326Y-43055316D01*
X92164681Y-43082147D01*
X92193877Y-43101441D01*
X92233183Y-43114465D01*
X92291866Y-43122486D01*
X92379192Y-43126769D01*
X92504429Y-43128583D01*
X92676843Y-43129192D01*
X93144492Y-43130201D01*
X93240714Y-43221981D01*
X93303742Y-43282100D01*
X93348403Y-43323715D01*
X93429714Y-43390207D01*
X93493769Y-43424357D01*
X93553446Y-43434000D01*
X93648514Y-43453481D01*
X93723510Y-43510565D01*
X93768196Y-43592817D01*
X93780835Y-43686168D01*
X93781037Y-43687667D01*
X93760494Y-43782540D01*
G37*
X93760494Y-43782540D02*
X93705031Y-43864864D01*
X93613111Y-43922068D01*
X93565496Y-43936520D01*
X93520820Y-43934803D01*
X93454971Y-43912668D01*
X93367384Y-43861828D01*
X93318709Y-43782515D01*
X93309179Y-43677352D01*
X93477564Y-43677352D01*
X93484347Y-43725160D01*
X93524875Y-43757118D01*
X93583170Y-43745507D01*
X93596735Y-43733977D01*
X93610636Y-43686168D01*
X93589737Y-43638858D01*
X93542169Y-43617444D01*
X93506654Y-43626879D01*
X93477564Y-43677352D01*
X93309179Y-43677352D01*
X93308221Y-43666785D01*
X93309162Y-43632278D01*
X93300711Y-43565343D01*
X93268928Y-43506648D01*
X93203843Y-43433952D01*
X93093656Y-43321111D01*
X92646474Y-43321111D01*
X92499719Y-43321267D01*
X92372582Y-43322604D01*
X92284574Y-43326447D01*
X92226362Y-43334120D01*
X92188609Y-43346946D01*
X92161982Y-43366250D01*
X92137147Y-43393355D01*
X92095726Y-43431076D01*
X91999912Y-43470022D01*
X91897623Y-43465141D01*
X91804801Y-43418822D01*
X91737387Y-43333455D01*
X91711252Y-43239286D01*
X91714465Y-43214989D01*
X91896649Y-43214989D01*
X91904594Y-43241641D01*
X91941301Y-43280517D01*
X91987183Y-43286838D01*
X92021142Y-43253992D01*
X92028353Y-43221981D01*
X92007665Y-43171042D01*
X91944372Y-43151777D01*
X91902219Y-43165261D01*
X91896649Y-43214989D01*
X91714465Y-43214989D01*
X91724399Y-43139864D01*
X91774488Y-43058280D01*
X91851123Y-43001784D01*
X91943906Y-42977625D01*
X92042439Y-42993051D01*
X92136324Y-43055313D01*
X92136326Y-43055316D01*
X92164681Y-43082147D01*
X92193877Y-43101441D01*
X92233183Y-43114465D01*
X92291866Y-43122486D01*
X92379192Y-43126769D01*
X92504429Y-43128583D01*
X92676843Y-43129192D01*
X93144492Y-43130201D01*
X93240714Y-43221981D01*
X93303742Y-43282100D01*
X93348403Y-43323715D01*
X93429714Y-43390207D01*
X93493769Y-43424357D01*
X93553446Y-43434000D01*
X93648514Y-43453481D01*
X93723510Y-43510565D01*
X93768196Y-43592817D01*
X93780835Y-43686168D01*
X93781037Y-43687667D01*
X93760494Y-43782540D01*
G36*
X94656156Y-44506618D02*
G01*
X94717174Y-44513530D01*
X94742000Y-44527403D01*
X94727592Y-44546052D01*
X94677445Y-44600774D01*
X94595714Y-44686576D01*
X94486939Y-44798783D01*
X94355655Y-44932718D01*
X94206400Y-45083706D01*
X94043712Y-45247070D01*
X93345424Y-45945777D01*
X93147656Y-45946070D01*
X92949889Y-45946363D01*
X92456000Y-46439935D01*
X92349711Y-46545939D01*
X92223600Y-46671102D01*
X92115366Y-46777829D01*
X92030500Y-46860734D01*
X91974493Y-46914431D01*
X91952836Y-46933531D01*
X91933790Y-46918031D01*
X91882202Y-46870033D01*
X91806605Y-46797304D01*
X91715344Y-46707777D01*
X91487127Y-46482000D01*
X91116693Y-46482000D01*
X90898891Y-46265474D01*
X90681088Y-46048949D01*
X90589182Y-46138805D01*
X90497276Y-46228660D01*
X89714238Y-45447186D01*
X89593412Y-45326486D01*
X89416789Y-45149318D01*
X89275095Y-45005796D01*
X89164972Y-44892183D01*
X89083060Y-44804741D01*
X89026000Y-44739734D01*
X88990433Y-44693425D01*
X88973000Y-44662075D01*
X88970342Y-44641949D01*
X88979100Y-44629309D01*
X89011710Y-44608500D01*
X89057622Y-44592008D01*
X89079026Y-44606983D01*
X89136469Y-44657851D01*
X89224650Y-44740377D01*
X89338849Y-44850025D01*
X89474349Y-44982261D01*
X89626432Y-45132549D01*
X89790379Y-45296354D01*
X90492513Y-46001597D01*
X90678979Y-45820867D01*
X90940076Y-46080878D01*
X91201172Y-46340888D01*
X91568631Y-46340888D01*
X91750445Y-46524333D01*
X91792178Y-46565962D01*
X91867819Y-46638736D01*
X91923838Y-46689014D01*
X91950407Y-46707777D01*
X91960149Y-46701042D01*
X92004805Y-46660820D01*
X92079837Y-46589206D01*
X92179474Y-46491811D01*
X92297945Y-46374242D01*
X92429480Y-46242111D01*
X92890404Y-45776444D01*
X93288556Y-45776400D01*
X93916759Y-45141422D01*
X94083000Y-44973728D01*
X94226086Y-44830615D01*
X94338892Y-44719929D01*
X94426125Y-44637558D01*
X94492494Y-44579387D01*
X94542706Y-44541304D01*
X94581469Y-44519195D01*
X94613492Y-44508946D01*
X94643481Y-44506444D01*
X94656156Y-44506618D01*
G37*
X94656156Y-44506618D02*
X94717174Y-44513530D01*
X94742000Y-44527403D01*
X94727592Y-44546052D01*
X94677445Y-44600774D01*
X94595714Y-44686576D01*
X94486939Y-44798783D01*
X94355655Y-44932718D01*
X94206400Y-45083706D01*
X94043712Y-45247070D01*
X93345424Y-45945777D01*
X93147656Y-45946070D01*
X92949889Y-45946363D01*
X92456000Y-46439935D01*
X92349711Y-46545939D01*
X92223600Y-46671102D01*
X92115366Y-46777829D01*
X92030500Y-46860734D01*
X91974493Y-46914431D01*
X91952836Y-46933531D01*
X91933790Y-46918031D01*
X91882202Y-46870033D01*
X91806605Y-46797304D01*
X91715344Y-46707777D01*
X91487127Y-46482000D01*
X91116693Y-46482000D01*
X90898891Y-46265474D01*
X90681088Y-46048949D01*
X90589182Y-46138805D01*
X90497276Y-46228660D01*
X89714238Y-45447186D01*
X89593412Y-45326486D01*
X89416789Y-45149318D01*
X89275095Y-45005796D01*
X89164972Y-44892183D01*
X89083060Y-44804741D01*
X89026000Y-44739734D01*
X88990433Y-44693425D01*
X88973000Y-44662075D01*
X88970342Y-44641949D01*
X88979100Y-44629309D01*
X89011710Y-44608500D01*
X89057622Y-44592008D01*
X89079026Y-44606983D01*
X89136469Y-44657851D01*
X89224650Y-44740377D01*
X89338849Y-44850025D01*
X89474349Y-44982261D01*
X89626432Y-45132549D01*
X89790379Y-45296354D01*
X90492513Y-46001597D01*
X90678979Y-45820867D01*
X90940076Y-46080878D01*
X91201172Y-46340888D01*
X91568631Y-46340888D01*
X91750445Y-46524333D01*
X91792178Y-46565962D01*
X91867819Y-46638736D01*
X91923838Y-46689014D01*
X91950407Y-46707777D01*
X91960149Y-46701042D01*
X92004805Y-46660820D01*
X92079837Y-46589206D01*
X92179474Y-46491811D01*
X92297945Y-46374242D01*
X92429480Y-46242111D01*
X92890404Y-45776444D01*
X93288556Y-45776400D01*
X93916759Y-45141422D01*
X94083000Y-44973728D01*
X94226086Y-44830615D01*
X94338892Y-44719929D01*
X94426125Y-44637558D01*
X94492494Y-44579387D01*
X94542706Y-44541304D01*
X94581469Y-44519195D01*
X94613492Y-44508946D01*
X94643481Y-44506444D01*
X94656156Y-44506618D01*
G36*
X90422978Y-43772666D02*
G01*
X90348478Y-43775481D01*
X90280487Y-43785763D01*
X90254667Y-43801303D01*
X90253292Y-43807099D01*
X90222182Y-43843355D01*
X90162945Y-43887065D01*
X90153506Y-43892734D01*
X90041057Y-43929802D01*
X89933147Y-43912382D01*
X89838389Y-43841678D01*
X89790731Y-43768337D01*
X89771319Y-43672383D01*
X89773030Y-43665229D01*
X89950065Y-43665229D01*
X89964812Y-43717146D01*
X90005061Y-43750604D01*
X90052833Y-43747097D01*
X90061694Y-43740364D01*
X90081575Y-43692370D01*
X90066129Y-43639540D01*
X90021424Y-43608627D01*
X89992971Y-43610634D01*
X89954389Y-43645769D01*
X89950065Y-43665229D01*
X89773030Y-43665229D01*
X89792557Y-43583604D01*
X89845703Y-43509752D01*
X89922017Y-43458579D01*
X90012760Y-43437839D01*
X90109189Y-43455284D01*
X90202564Y-43518666D01*
X90218251Y-43533369D01*
X90291213Y-43583440D01*
X90355616Y-43603333D01*
X90370512Y-43603151D01*
X90396426Y-43597806D01*
X90412235Y-43577235D01*
X90420436Y-43531131D01*
X90423525Y-43449191D01*
X90424000Y-43321111D01*
X90424000Y-43038888D01*
X91286102Y-43038888D01*
X91508100Y-42815581D01*
X91563238Y-42759509D01*
X91644563Y-42671997D01*
X91692788Y-42609881D01*
X91713810Y-42564929D01*
X91713528Y-42528912D01*
X91707895Y-42491839D01*
X91709861Y-42481211D01*
X91896649Y-42481211D01*
X91904594Y-42507863D01*
X91941301Y-42546739D01*
X91987183Y-42553060D01*
X92021142Y-42520215D01*
X92028353Y-42488203D01*
X92007665Y-42437264D01*
X91944372Y-42418000D01*
X91902219Y-42431483D01*
X91896649Y-42481211D01*
X91709861Y-42481211D01*
X91726300Y-42392338D01*
X91784141Y-42305552D01*
X91870406Y-42250989D01*
X91878550Y-42248425D01*
X91958919Y-42233611D01*
X92021304Y-42237993D01*
X92119359Y-42295140D01*
X92180448Y-42377290D01*
X92203848Y-42471546D01*
X92201617Y-42488203D01*
X92191220Y-42565850D01*
X92144225Y-42648140D01*
X92064523Y-42706358D01*
X91953774Y-42728444D01*
X91933893Y-42728821D01*
X91886274Y-42735644D01*
X91838991Y-42756230D01*
X91782142Y-42797274D01*
X91705824Y-42865469D01*
X91600134Y-42967511D01*
X91356175Y-43206578D01*
X90981810Y-43214455D01*
X90607445Y-43222333D01*
X90599367Y-43497500D01*
X90593646Y-43692370D01*
X90591290Y-43772666D01*
X90422978Y-43772666D01*
G37*
X90422978Y-43772666D02*
X90348478Y-43775481D01*
X90280487Y-43785763D01*
X90254667Y-43801303D01*
X90253292Y-43807099D01*
X90222182Y-43843355D01*
X90162945Y-43887065D01*
X90153506Y-43892734D01*
X90041057Y-43929802D01*
X89933147Y-43912382D01*
X89838389Y-43841678D01*
X89790731Y-43768337D01*
X89771319Y-43672383D01*
X89773030Y-43665229D01*
X89950065Y-43665229D01*
X89964812Y-43717146D01*
X90005061Y-43750604D01*
X90052833Y-43747097D01*
X90061694Y-43740364D01*
X90081575Y-43692370D01*
X90066129Y-43639540D01*
X90021424Y-43608627D01*
X89992971Y-43610634D01*
X89954389Y-43645769D01*
X89950065Y-43665229D01*
X89773030Y-43665229D01*
X89792557Y-43583604D01*
X89845703Y-43509752D01*
X89922017Y-43458579D01*
X90012760Y-43437839D01*
X90109189Y-43455284D01*
X90202564Y-43518666D01*
X90218251Y-43533369D01*
X90291213Y-43583440D01*
X90355616Y-43603333D01*
X90370512Y-43603151D01*
X90396426Y-43597806D01*
X90412235Y-43577235D01*
X90420436Y-43531131D01*
X90423525Y-43449191D01*
X90424000Y-43321111D01*
X90424000Y-43038888D01*
X91286102Y-43038888D01*
X91508100Y-42815581D01*
X91563238Y-42759509D01*
X91644563Y-42671997D01*
X91692788Y-42609881D01*
X91713810Y-42564929D01*
X91713528Y-42528912D01*
X91707895Y-42491839D01*
X91709861Y-42481211D01*
X91896649Y-42481211D01*
X91904594Y-42507863D01*
X91941301Y-42546739D01*
X91987183Y-42553060D01*
X92021142Y-42520215D01*
X92028353Y-42488203D01*
X92007665Y-42437264D01*
X91944372Y-42418000D01*
X91902219Y-42431483D01*
X91896649Y-42481211D01*
X91709861Y-42481211D01*
X91726300Y-42392338D01*
X91784141Y-42305552D01*
X91870406Y-42250989D01*
X91878550Y-42248425D01*
X91958919Y-42233611D01*
X92021304Y-42237993D01*
X92119359Y-42295140D01*
X92180448Y-42377290D01*
X92203848Y-42471546D01*
X92201617Y-42488203D01*
X92191220Y-42565850D01*
X92144225Y-42648140D01*
X92064523Y-42706358D01*
X91953774Y-42728444D01*
X91933893Y-42728821D01*
X91886274Y-42735644D01*
X91838991Y-42756230D01*
X91782142Y-42797274D01*
X91705824Y-42865469D01*
X91600134Y-42967511D01*
X91356175Y-43206578D01*
X90981810Y-43214455D01*
X90607445Y-43222333D01*
X90599367Y-43497500D01*
X90593646Y-43692370D01*
X90591290Y-43772666D01*
X90422978Y-43772666D01*
G36*
X90784112Y-44513083D02*
G01*
X91203425Y-44933097D01*
X91622739Y-45353111D01*
X91931539Y-45353111D01*
X92211600Y-45070888D01*
X92491662Y-44788666D01*
X92679503Y-44788666D01*
X92734891Y-44788471D01*
X92816215Y-44783552D01*
X92873745Y-44765148D01*
X92928583Y-44724318D01*
X93001834Y-44652123D01*
X93046737Y-44607841D01*
X93116890Y-44549637D01*
X93178124Y-44520729D01*
X93247718Y-44511215D01*
X93271731Y-44510561D01*
X93334106Y-44512348D01*
X93359111Y-44519046D01*
X93347444Y-44534726D01*
X93303087Y-44583480D01*
X93233332Y-44656359D01*
X93146424Y-44744621D01*
X92933737Y-44958000D01*
X92553663Y-44958000D01*
X92019671Y-45494222D01*
X91779224Y-45493481D01*
X91538778Y-45492740D01*
X91117576Y-45084259D01*
X91080469Y-45048341D01*
X90956849Y-44929718D01*
X90848536Y-44827338D01*
X90761787Y-44747012D01*
X90702855Y-44694555D01*
X90677995Y-44675777D01*
X90675995Y-44676083D01*
X90642884Y-44698741D01*
X90593334Y-44746333D01*
X90587156Y-44752821D01*
X90538225Y-44798278D01*
X90507640Y-44816888D01*
X90503716Y-44816006D01*
X90465479Y-44790877D01*
X90404536Y-44740228D01*
X90334113Y-44676377D01*
X90267436Y-44611639D01*
X90217730Y-44558329D01*
X90198222Y-44528764D01*
X90213051Y-44521152D01*
X90273693Y-44513238D01*
X90370304Y-44508717D01*
X90491167Y-44508404D01*
X90784112Y-44513083D01*
G37*
X90784112Y-44513083D02*
X91203425Y-44933097D01*
X91622739Y-45353111D01*
X91931539Y-45353111D01*
X92211600Y-45070888D01*
X92491662Y-44788666D01*
X92679503Y-44788666D01*
X92734891Y-44788471D01*
X92816215Y-44783552D01*
X92873745Y-44765148D01*
X92928583Y-44724318D01*
X93001834Y-44652123D01*
X93046737Y-44607841D01*
X93116890Y-44549637D01*
X93178124Y-44520729D01*
X93247718Y-44511215D01*
X93271731Y-44510561D01*
X93334106Y-44512348D01*
X93359111Y-44519046D01*
X93347444Y-44534726D01*
X93303087Y-44583480D01*
X93233332Y-44656359D01*
X93146424Y-44744621D01*
X92933737Y-44958000D01*
X92553663Y-44958000D01*
X92019671Y-45494222D01*
X91779224Y-45493481D01*
X91538778Y-45492740D01*
X91117576Y-45084259D01*
X91080469Y-45048341D01*
X90956849Y-44929718D01*
X90848536Y-44827338D01*
X90761787Y-44747012D01*
X90702855Y-44694555D01*
X90677995Y-44675777D01*
X90675995Y-44676083D01*
X90642884Y-44698741D01*
X90593334Y-44746333D01*
X90587156Y-44752821D01*
X90538225Y-44798278D01*
X90507640Y-44816888D01*
X90503716Y-44816006D01*
X90465479Y-44790877D01*
X90404536Y-44740228D01*
X90334113Y-44676377D01*
X90267436Y-44611639D01*
X90217730Y-44558329D01*
X90198222Y-44528764D01*
X90213051Y-44521152D01*
X90273693Y-44513238D01*
X90370304Y-44508717D01*
X90491167Y-44508404D01*
X90784112Y-44513083D01*
G36*
X91917264Y-44664212D02*
G01*
X91765286Y-44818102D01*
X91630865Y-44674179D01*
X91626714Y-44669730D01*
X91560927Y-44597924D01*
X91514211Y-44544564D01*
X91496445Y-44520913D01*
X91509645Y-44518085D01*
X91568400Y-44514579D01*
X91663420Y-44512062D01*
X91782843Y-44510946D01*
X92069242Y-44510323D01*
X91917264Y-44664212D01*
G37*
X91917264Y-44664212D02*
X91765286Y-44818102D01*
X91630865Y-44674179D01*
X91626714Y-44669730D01*
X91560927Y-44597924D01*
X91514211Y-44544564D01*
X91496445Y-44520913D01*
X91509645Y-44518085D01*
X91568400Y-44514579D01*
X91663420Y-44512062D01*
X91782843Y-44510946D01*
X92069242Y-44510323D01*
X91917264Y-44664212D01*
G36*
X89920516Y-44519176D02*
G01*
X89964860Y-44543643D01*
X90021254Y-44589995D01*
X90098711Y-44664507D01*
X90206247Y-44773458D01*
X90228822Y-44796409D01*
X90326144Y-44892865D01*
X90408964Y-44971074D01*
X90469116Y-45023514D01*
X90498439Y-45042666D01*
X90500973Y-45042435D01*
X90540692Y-45020004D01*
X90593334Y-44972111D01*
X90599288Y-44965866D01*
X90649284Y-44920244D01*
X90681927Y-44901555D01*
X90682227Y-44901583D01*
X90709426Y-44922202D01*
X90769144Y-44976868D01*
X90854868Y-45059322D01*
X90960088Y-45163304D01*
X91078290Y-45282555D01*
X91452343Y-45663555D01*
X91634853Y-45663555D01*
X91676363Y-45663918D01*
X91771137Y-45670775D01*
X91834077Y-45689822D01*
X91883421Y-45725614D01*
X91949480Y-45787673D01*
X92163834Y-45577447D01*
X92220432Y-45521656D01*
X92325629Y-45416698D01*
X92421017Y-45320078D01*
X92491244Y-45247277D01*
X92522749Y-45214153D01*
X92576620Y-45164467D01*
X92627120Y-45138636D01*
X92694189Y-45128858D01*
X92797763Y-45127333D01*
X92991225Y-45127333D01*
X93288184Y-44826753D01*
X93387820Y-44726783D01*
X93480271Y-44637792D01*
X93549207Y-44578424D01*
X93602926Y-44542363D01*
X93649726Y-44523293D01*
X93697905Y-44514898D01*
X93723747Y-44512906D01*
X93785834Y-44514446D01*
X93810667Y-44525821D01*
X93810664Y-44525919D01*
X93791154Y-44552440D01*
X93737818Y-44611952D01*
X93656881Y-44697847D01*
X93554571Y-44803514D01*
X93437115Y-44922343D01*
X93063562Y-45296666D01*
X92679342Y-45296666D01*
X92320727Y-45649412D01*
X92216399Y-45751364D01*
X92112286Y-45851606D01*
X92028077Y-45931040D01*
X91970485Y-45983343D01*
X91946225Y-46002190D01*
X91940233Y-45999831D01*
X91903164Y-45970226D01*
X91849222Y-45917555D01*
X91802628Y-45873655D01*
X91753649Y-45846902D01*
X91686979Y-45835366D01*
X91583279Y-45832888D01*
X91398452Y-45832888D01*
X91041156Y-45476386D01*
X90683861Y-45119883D01*
X90597541Y-45215330D01*
X90511222Y-45310777D01*
X89715774Y-44517637D01*
X89829220Y-44510943D01*
X89831916Y-44510786D01*
X89879206Y-44510316D01*
X89920516Y-44519176D01*
G37*
X89920516Y-44519176D02*
X89964860Y-44543643D01*
X90021254Y-44589995D01*
X90098711Y-44664507D01*
X90206247Y-44773458D01*
X90228822Y-44796409D01*
X90326144Y-44892865D01*
X90408964Y-44971074D01*
X90469116Y-45023514D01*
X90498439Y-45042666D01*
X90500973Y-45042435D01*
X90540692Y-45020004D01*
X90593334Y-44972111D01*
X90599288Y-44965866D01*
X90649284Y-44920244D01*
X90681927Y-44901555D01*
X90682227Y-44901583D01*
X90709426Y-44922202D01*
X90769144Y-44976868D01*
X90854868Y-45059322D01*
X90960088Y-45163304D01*
X91078290Y-45282555D01*
X91452343Y-45663555D01*
X91634853Y-45663555D01*
X91676363Y-45663918D01*
X91771137Y-45670775D01*
X91834077Y-45689822D01*
X91883421Y-45725614D01*
X91949480Y-45787673D01*
X92163834Y-45577447D01*
X92220432Y-45521656D01*
X92325629Y-45416698D01*
X92421017Y-45320078D01*
X92491244Y-45247277D01*
X92522749Y-45214153D01*
X92576620Y-45164467D01*
X92627120Y-45138636D01*
X92694189Y-45128858D01*
X92797763Y-45127333D01*
X92991225Y-45127333D01*
X93288184Y-44826753D01*
X93387820Y-44726783D01*
X93480271Y-44637792D01*
X93549207Y-44578424D01*
X93602926Y-44542363D01*
X93649726Y-44523293D01*
X93697905Y-44514898D01*
X93723747Y-44512906D01*
X93785834Y-44514446D01*
X93810667Y-44525821D01*
X93810664Y-44525919D01*
X93791154Y-44552440D01*
X93737818Y-44611952D01*
X93656881Y-44697847D01*
X93554571Y-44803514D01*
X93437115Y-44922343D01*
X93063562Y-45296666D01*
X92679342Y-45296666D01*
X92320727Y-45649412D01*
X92216399Y-45751364D01*
X92112286Y-45851606D01*
X92028077Y-45931040D01*
X91970485Y-45983343D01*
X91946225Y-46002190D01*
X91940233Y-45999831D01*
X91903164Y-45970226D01*
X91849222Y-45917555D01*
X91802628Y-45873655D01*
X91753649Y-45846902D01*
X91686979Y-45835366D01*
X91583279Y-45832888D01*
X91398452Y-45832888D01*
X91041156Y-45476386D01*
X90683861Y-45119883D01*
X90597541Y-45215330D01*
X90511222Y-45310777D01*
X89715774Y-44517637D01*
X89829220Y-44510943D01*
X89831916Y-44510786D01*
X89879206Y-44510316D01*
X89920516Y-44519176D01*
G36*
X90676638Y-41774593D02*
G01*
X90674465Y-41776762D01*
X90612013Y-41830458D01*
X90554300Y-41849802D01*
X90472315Y-41844755D01*
X90457004Y-41842351D01*
X90348711Y-41799754D01*
X90278778Y-41725302D01*
X90251008Y-41630719D01*
X90260421Y-41577435D01*
X90437112Y-41577435D01*
X90441039Y-41639342D01*
X90454696Y-41663085D01*
X90501389Y-41682573D01*
X90557262Y-41652560D01*
X90577533Y-41609692D01*
X90559717Y-41563553D01*
X90507313Y-41543111D01*
X90479910Y-41545841D01*
X90437112Y-41577435D01*
X90260421Y-41577435D01*
X90269202Y-41527727D01*
X90337163Y-41428051D01*
X90350193Y-41415657D01*
X90450535Y-41355854D01*
X90552666Y-41348727D01*
X90646023Y-41392677D01*
X90720041Y-41486101D01*
X90725434Y-41496770D01*
X90758799Y-41599471D01*
X90756988Y-41609692D01*
X90743315Y-41686882D01*
X90676638Y-41774593D01*
G37*
X90676638Y-41774593D02*
X90674465Y-41776762D01*
X90612013Y-41830458D01*
X90554300Y-41849802D01*
X90472315Y-41844755D01*
X90457004Y-41842351D01*
X90348711Y-41799754D01*
X90278778Y-41725302D01*
X90251008Y-41630719D01*
X90260421Y-41577435D01*
X90437112Y-41577435D01*
X90441039Y-41639342D01*
X90454696Y-41663085D01*
X90501389Y-41682573D01*
X90557262Y-41652560D01*
X90577533Y-41609692D01*
X90559717Y-41563553D01*
X90507313Y-41543111D01*
X90479910Y-41545841D01*
X90437112Y-41577435D01*
X90260421Y-41577435D01*
X90269202Y-41527727D01*
X90337163Y-41428051D01*
X90350193Y-41415657D01*
X90450535Y-41355854D01*
X90552666Y-41348727D01*
X90646023Y-41392677D01*
X90720041Y-41486101D01*
X90725434Y-41496770D01*
X90758799Y-41599471D01*
X90756988Y-41609692D01*
X90743315Y-41686882D01*
X90676638Y-41774593D01*
G36*
X91994250Y-44273739D02*
G01*
X89016974Y-44280923D01*
X88932436Y-44365461D01*
X88878442Y-44409167D01*
X88776148Y-44449174D01*
X88675378Y-44442088D01*
X88589563Y-44387061D01*
X88571434Y-44366092D01*
X88516541Y-44260726D01*
X88515230Y-44210497D01*
X88688334Y-44210497D01*
X88698762Y-44247585D01*
X88751960Y-44275590D01*
X88766703Y-44276484D01*
X88818500Y-44256293D01*
X88841127Y-44211864D01*
X88822079Y-44163234D01*
X88815392Y-44157302D01*
X88761428Y-44141405D01*
X88710763Y-44162074D01*
X88688334Y-44210497D01*
X88515230Y-44210497D01*
X88513797Y-44155558D01*
X88561421Y-44061037D01*
X88657634Y-43987611D01*
X88681856Y-43975790D01*
X88745279Y-43951393D01*
X88795754Y-43953296D01*
X88861577Y-43980514D01*
X88875106Y-43987298D01*
X88939697Y-44029594D01*
X88974445Y-44068958D01*
X88974532Y-44069174D01*
X88982510Y-44076174D01*
X89002352Y-44082367D01*
X89037242Y-44087800D01*
X89090363Y-44092522D01*
X89164901Y-44096581D01*
X89264040Y-44100023D01*
X89390964Y-44102897D01*
X89548857Y-44105251D01*
X89740905Y-44107132D01*
X89970290Y-44108588D01*
X90240198Y-44109667D01*
X90553813Y-44110416D01*
X90914319Y-44110884D01*
X91324900Y-44111118D01*
X91788742Y-44111165D01*
X94586778Y-44110998D01*
X93936423Y-43462054D01*
X93286069Y-42813111D01*
X92894050Y-42813111D01*
X92421578Y-42341252D01*
X91949107Y-41869394D01*
X91761325Y-42059030D01*
X91573544Y-42248666D01*
X91201172Y-42248666D01*
X90940151Y-42508602D01*
X90679130Y-42768537D01*
X90588864Y-42676211D01*
X90498597Y-42583884D01*
X90011440Y-43070444D01*
X89962399Y-43119443D01*
X89821479Y-43260815D01*
X89714618Y-43369892D01*
X89637173Y-43452422D01*
X89584502Y-43514151D01*
X89551963Y-43560825D01*
X89534912Y-43598191D01*
X89528708Y-43631995D01*
X89528709Y-43667984D01*
X89528009Y-43686168D01*
X89526064Y-43736735D01*
X89500430Y-43798651D01*
X89438755Y-43863291D01*
X89384756Y-43906892D01*
X89324194Y-43933587D01*
X89257600Y-43930264D01*
X89207576Y-43916104D01*
X89115844Y-43859075D01*
X89060322Y-43778411D01*
X89040124Y-43685923D01*
X89041444Y-43677352D01*
X89216008Y-43677352D01*
X89222791Y-43725160D01*
X89263320Y-43757118D01*
X89321614Y-43745507D01*
X89335179Y-43733977D01*
X89349080Y-43686168D01*
X89328181Y-43638858D01*
X89280614Y-43617444D01*
X89245099Y-43626879D01*
X89216008Y-43677352D01*
X89041444Y-43677352D01*
X89054365Y-43593426D01*
X89102156Y-43512731D01*
X89182612Y-43455651D01*
X89294846Y-43434000D01*
X89307637Y-43433758D01*
X89340665Y-43429336D01*
X89376148Y-43415907D01*
X89419416Y-43389037D01*
X89475799Y-43344287D01*
X89550626Y-43277223D01*
X89649228Y-43183407D01*
X89776934Y-43058404D01*
X89939074Y-42897777D01*
X89941737Y-42895132D01*
X90085092Y-42753622D01*
X90215766Y-42626256D01*
X90328326Y-42518199D01*
X90417338Y-42434619D01*
X90477369Y-42380682D01*
X90502985Y-42361555D01*
X90505312Y-42361818D01*
X90542075Y-42384351D01*
X90593334Y-42432111D01*
X90599254Y-42438319D01*
X90649411Y-42483965D01*
X90682365Y-42502666D01*
X90700093Y-42491909D01*
X90751284Y-42448076D01*
X90825452Y-42378289D01*
X90913374Y-42291000D01*
X91121635Y-42079333D01*
X91498052Y-42079333D01*
X91727387Y-41851839D01*
X91956723Y-41624345D01*
X92467417Y-42130833D01*
X92978111Y-42637322D01*
X93152865Y-42624944D01*
X93327618Y-42612566D01*
X94149572Y-43439560D01*
X94917168Y-44211864D01*
X94971525Y-44266555D01*
X91994250Y-44273739D01*
G37*
X91994250Y-44273739D02*
X89016974Y-44280923D01*
X88932436Y-44365461D01*
X88878442Y-44409167D01*
X88776148Y-44449174D01*
X88675378Y-44442088D01*
X88589563Y-44387061D01*
X88571434Y-44366092D01*
X88516541Y-44260726D01*
X88515230Y-44210497D01*
X88688334Y-44210497D01*
X88698762Y-44247585D01*
X88751960Y-44275590D01*
X88766703Y-44276484D01*
X88818500Y-44256293D01*
X88841127Y-44211864D01*
X88822079Y-44163234D01*
X88815392Y-44157302D01*
X88761428Y-44141405D01*
X88710763Y-44162074D01*
X88688334Y-44210497D01*
X88515230Y-44210497D01*
X88513797Y-44155558D01*
X88561421Y-44061037D01*
X88657634Y-43987611D01*
X88681856Y-43975790D01*
X88745279Y-43951393D01*
X88795754Y-43953296D01*
X88861577Y-43980514D01*
X88875106Y-43987298D01*
X88939697Y-44029594D01*
X88974445Y-44068958D01*
X88974532Y-44069174D01*
X88982510Y-44076174D01*
X89002352Y-44082367D01*
X89037242Y-44087800D01*
X89090363Y-44092522D01*
X89164901Y-44096581D01*
X89264040Y-44100023D01*
X89390964Y-44102897D01*
X89548857Y-44105251D01*
X89740905Y-44107132D01*
X89970290Y-44108588D01*
X90240198Y-44109667D01*
X90553813Y-44110416D01*
X90914319Y-44110884D01*
X91324900Y-44111118D01*
X91788742Y-44111165D01*
X94586778Y-44110998D01*
X93936423Y-43462054D01*
X93286069Y-42813111D01*
X92894050Y-42813111D01*
X92421578Y-42341252D01*
X91949107Y-41869394D01*
X91761325Y-42059030D01*
X91573544Y-42248666D01*
X91201172Y-42248666D01*
X90940151Y-42508602D01*
X90679130Y-42768537D01*
X90588864Y-42676211D01*
X90498597Y-42583884D01*
X90011440Y-43070444D01*
X89962399Y-43119443D01*
X89821479Y-43260815D01*
X89714618Y-43369892D01*
X89637173Y-43452422D01*
X89584502Y-43514151D01*
X89551963Y-43560825D01*
X89534912Y-43598191D01*
X89528708Y-43631995D01*
X89528709Y-43667984D01*
X89528009Y-43686168D01*
X89526064Y-43736735D01*
X89500430Y-43798651D01*
X89438755Y-43863291D01*
X89384756Y-43906892D01*
X89324194Y-43933587D01*
X89257600Y-43930264D01*
X89207576Y-43916104D01*
X89115844Y-43859075D01*
X89060322Y-43778411D01*
X89040124Y-43685923D01*
X89041444Y-43677352D01*
X89216008Y-43677352D01*
X89222791Y-43725160D01*
X89263320Y-43757118D01*
X89321614Y-43745507D01*
X89335179Y-43733977D01*
X89349080Y-43686168D01*
X89328181Y-43638858D01*
X89280614Y-43617444D01*
X89245099Y-43626879D01*
X89216008Y-43677352D01*
X89041444Y-43677352D01*
X89054365Y-43593426D01*
X89102156Y-43512731D01*
X89182612Y-43455651D01*
X89294846Y-43434000D01*
X89307637Y-43433758D01*
X89340665Y-43429336D01*
X89376148Y-43415907D01*
X89419416Y-43389037D01*
X89475799Y-43344287D01*
X89550626Y-43277223D01*
X89649228Y-43183407D01*
X89776934Y-43058404D01*
X89939074Y-42897777D01*
X89941737Y-42895132D01*
X90085092Y-42753622D01*
X90215766Y-42626256D01*
X90328326Y-42518199D01*
X90417338Y-42434619D01*
X90477369Y-42380682D01*
X90502985Y-42361555D01*
X90505312Y-42361818D01*
X90542075Y-42384351D01*
X90593334Y-42432111D01*
X90599254Y-42438319D01*
X90649411Y-42483965D01*
X90682365Y-42502666D01*
X90700093Y-42491909D01*
X90751284Y-42448076D01*
X90825452Y-42378289D01*
X90913374Y-42291000D01*
X91121635Y-42079333D01*
X91498052Y-42079333D01*
X91727387Y-41851839D01*
X91956723Y-41624345D01*
X92467417Y-42130833D01*
X92978111Y-42637322D01*
X93152865Y-42624944D01*
X93327618Y-42612566D01*
X94149572Y-43439560D01*
X94917168Y-44211864D01*
X94971525Y-44266555D01*
X91994250Y-44273739D01*
D14*
%TO.C,Th+He1*%
X39460068Y-42894924D02*
X32480924Y-49874068D01*
X34093127Y-37527984D02*
X33089036Y-38532075D01*
X39240865Y-42675721D02*
X39460068Y-42894924D01*
X33089036Y-38532075D02*
X33442589Y-38885629D01*
X32480924Y-49874068D02*
X32261721Y-49654865D01*
X28471628Y-43856589D02*
X28118075Y-43503036D01*
X38166062Y-41600919D02*
X34093127Y-37527984D01*
X27113983Y-44507128D02*
X31186918Y-48580063D01*
X28118075Y-43503036D02*
X27113983Y-44507128D01*
X33442589Y-38885629D02*
X28471628Y-43856589D01*
%TD*%
M02*
